/* XPM */
static char *eb1073cbfe0f4b50cdfb320835f8c0f0Gtvpw5WS9LBEoD4n[] = {
/* columns rows colors chars-per-pixel */
"64 64 202 2 ",
"   c #010000",
".  c #0C0100",
"X  c #0D0A00",
"o  c #070E00",
"O  c #140400",
"+  c #1B0200",
"@  c #150A00",
"#  c #1B0B00",
"$  c #071300",
"%  c #151300",
"&  c #1C1300",
"*  c #171800",
"=  c #230100",
"-  c #2C0100",
";  c #220D00",
":  c #2C0C00",
">  c #330100",
",  c #3B0100",
"<  c #330B00",
"1  c #3B0C00",
"2  c #231300",
"3  c #2B1500",
"4  c #261900",
"5  c #2C1900",
"6  c #331400",
"7  c #3C1500",
"8  c #331B00",
"9  c #3B1C00",
"0  c #142A00",
"q  c #2B2200",
"w  c #2C2800",
"e  c #362100",
"r  c #3C2200",
"t  c #332C00",
"y  c #3C2900",
"u  c #293900",
"i  c #3C3300",
"p  c #363C00",
"a  c #3A3B00",
"s  c #420000",
"d  c #4D0200",
"f  c #410B00",
"g  c #4D0900",
"h  c #520200",
"j  c #530C00",
"k  c #5B0A00",
"l  c #441400",
"z  c #491400",
"x  c #431B00",
"c  c #4C1C00",
"v  c #531400",
"b  c #591400",
"n  c #541B00",
"m  c #5B1B00",
"M  c #600900",
"N  c #770000",
"B  c #631400",
"V  c #6A1500",
"C  c #641B00",
"Z  c #691D00",
"A  c #721D00",
"S  c #432400",
"D  c #4B2400",
"F  c #432A00",
"G  c #4B2C00",
"H  c #532300",
"J  c #5A2300",
"K  c #522C00",
"L  c #5B2C00",
"P  c #443300",
"I  c #4C3200",
"U  c #443C00",
"Y  c #4B3C00",
"T  c #533300",
"R  c #5B3400",
"E  c #543B00",
"W  c #5C3C00",
"Q  c #622300",
"!  c #692400",
"~  c #632B00",
"^  c #6B2E00",
"/  c #732300",
"(  c #7C2300",
")  c #742A00",
"_  c #7D2B00",
"`  c #623500",
"'  c #693500",
"]  c #633C00",
"[  c #693C00",
"{  c #733400",
"}  c #7D3300",
"|  c #743C00",
" . c #7D3C00",
".. c #374500",
"X. c #384A00",
"o. c #3E6607",
"O. c #444300",
"+. c #4B4200",
"@. c #424B00",
"#. c #4E4900",
"$. c #5D4100",
"%. c #5C4C00",
"&. c #554800",
"*. c #435300",
"=. c #485700",
"-. c #5A5700",
";. c #644300",
":. c #6A4400",
">. c #664900",
",. c #6B4B00",
"<. c #724400",
"1. c #7D4500",
"2. c #724B00",
"3. c #7D4C00",
"4. c #6C5100",
"5. c #645D00",
"6. c #6C5D00",
"7. c #745200",
"8. c #7D5400",
"9. c #745B00",
"0. c #7D5A00",
"q. c #446905",
"w. c #4B6603",
"e. c #506100",
"r. c #577E0C",
"t. c #686C00",
"y. c #7D6200",
"u. c #6C7701",
"i. c #727601",
"p. c #787B01",
"a. c #8B0000",
"s. c #9B0000",
"d. c #A40000",
"f. c #B90000",
"g. c #822C00",
"h. c #892C00",
"j. c #833300",
"k. c #8B3500",
"l. c #823D00",
"z. c #8B3C00",
"x. c #923600",
"c. c #933C00",
"v. c #983E00",
"b. c #D60004",
"n. c #E60001",
"m. c #824400",
"M. c #8C4200",
"N. c #814B00",
"B. c #8B4B00",
"V. c #934300",
"C. c #9D4400",
"Z. c #954A00",
"A. c #9C4C00",
"S. c #825400",
"D. c #8B5400",
"F. c #825B00",
"G. c #8B5C00",
"H. c #945300",
"J. c #9C5400",
"K. c #935B00",
"L. c #9B5B00",
"P. c #A34D00",
"I. c #A45300",
"U. c #AC5500",
"Y. c #A45C00",
"T. c #AA5C00",
"R. c #B35C00",
"E. c #836100",
"W. c #8C6400",
"Q. c #8E6900",
"!. c #946400",
"~. c #9B6400",
"^. c #946B00",
"/. c #9A6B00",
"(. c #8B7200",
"). c #967100",
"_. c #9C7300",
"`. c #9E7C01",
"'. c #A36400",
"]. c #AC6400",
"[. c #A46B00",
"{. c #AC6900",
"}. c #AC6809",
"|. c #B16400",
" X c #B26900",
".X c #BD650B",
"XX c #BC6B0C",
"oX c #A47400",
"OX c #AC7500",
"+X c #A47C00",
"@X c #AB7E00",
"#X c #A47709",
"$X c #AC730B",
"%X c #A97D0A",
"&X c #A47B08",
"*X c #B57200",
"=X c #B37C01",
"-X c #B5770D",
";X c #AB830B",
":X c #A78303",
">X c #B18309",
",X c #B38604",
/* pixels */
"$.I G r r 5 r 8 e r 8 2 8 2 @ . . 4 X . # 4 # & ; # 2 ; ; ; @ 2 ; # ; ; # # # ; 2 @ @ . . X X X @ X @ @ @ @ X X . @ . @ X @ @ 3 ",
"R I F ,.W ,.F.8.7.8.F.F 2.T 4 2 & @ . 8 T S.T T F r 4 9 4 6 r y :.S.7.2.2.G.F.,.e F 3 2 @ @ @ . . @ 2 :.8.G.3.!.S.T 8 2 @ @ F K ",
"2.:.2.F.!.!.G.^./.).!.^.:.2.;.@ . @ 3 8.2.2.8.F.G.F.W.G.G.F.W.G.F.F.F.8.0.W.F.F.Q.0.F.F.,.5 @ . X e K S.S.W.^.).+X/.!.G.W 8.T F.",
"2.8.F.!.^._.!.!.).!._.).W.:.W 8 . I 2.8.>.2.S.8.F.!.G.W.W.Q.!.).^.).^.@X@XOX:X/.oX/._.S.R W . @ @ D 2.OX[.)._.:X:XoX+XW.G.G F F.",
":.8.F.!._.^.).).W./.W._./.2.G 5 ; F 2.W ] :.,.F.G.^.^./._._.#X/./._.oX@X@X_.^.#X/.oX/._.I T G @ # 3 :.G._.:X).+XT ,.^.G.S.2.r !.",
"F.8.F.^._.oX:X).G.8.W._.!.2.I 8 5 G ,.] 3.8.W.Q.W.).^._./.$X%X%XQ.F.!.oXoX7.:.+XoXoXoXoX;.D F I 3 ; e T /.+X`.:XT 7.Q.Q.G.>.r ;.",
"F.W.Q.^._.;X;XW.Q.^.Q.^.W.2.2.r S ;.>.^.`.2.F.F.W.W.W.!.).oX$X!.:.G.G.oX/.=XoX/._.oXoX_.W D G r 6 8 F R K ).Q.y.F ).^.!.W.W.8.F.",
"S.G.^.^.).oX^.^.#X$X^.!.R R <.9 r 2.W 7.E.T W 7.:.2.G.W.^.~.^.8.3.W.!./.OXoX+XOX[.oX!.:.$.F I F ; ; e G G K G 2.:.Q.).^.G.Q./.8.",
"8.F.^.).!.^.^.^.8.:.8.R D G ] 5 D 7.;.0.9.,.F.!._.+XS.S.F.G.S.G./.oX~./.~.!.oXG._.oXS.R R T S S 3 3 e T T G D 7.8.^.W.W.W.^.3.W ",
":.W.W.!.^.W.^.Q.R 2.] D L R 8 3 G F F.;X;X,.2./.>X>XF.2.G.G.~.G./.~.!.G.G.G.!.D.W.G.;.R R ;.8 r 2 2 r G T W T :.W E.3.F.3.F.<.` ",
"R 2.8.8.F.E.^.] K R K K R I 4 r T T F Q.,.R T T oX,X3.T T 2.S.G.K.G.K.G.S.S.D.S.G.[ :.[ :.8 9 3 3 + F K G G R 0.,.8.F.R K T W <.",
"R R :.7.:.8.] K K K L T :.r 2 ; :.P D I G I F F R ~.] R T N.D.S.D.<.[ :.S.S.S.S.[ [ :.<.R 9 9 3 2 @ 8 [ ] K T 7.2.,.R K R ` | 2.",
"2.R R ] :.[ :.K D R ;.] <.3 # ; T I G F G F I D F G K K D L <.] :.:.[ ' <.3.<.] 2.1.2.] D 9 6 ; + @ 8 ' :.[ K R T ] R ` ] :.[ <.",
"T K ;.T R 2.<.2.:.] :.G F 2 ; # S r T G G D 2.R G H D D D G D L ' ' :.' <.L R ' ~ D 9 x x 9 9 3 O @ y e R :.:.I W <.] 1.<.:.W :.",
"3 r 9 8 e r D r 8 r r e 3 . . ; 3 6 G D T :.<.K x S S D H K D D L H ' ' D x l l x x S D ; + + @ O + @ 8 5 e r T G K G r F 8 ; + ",
"@ 8 W G G S e 3 8 2 2 6 I @ ; 2 @ @ 3 3 8 9 7 x D D ` L ~ ' J L l x J L z 7 x 7 7 x 7 l : # # : O @ . 3 5 8 5 e 3 ; 2 2 9 r @ @ ",
"@ F T ,.,.] T ,.,.8.>.W 7.2.S r ,.,.:.G 8 r x S : + = = < : - l c H J > - : : < l 7 < < = + + 6 # 7 3 D ] W 8 r y F ,.:.T S S O ",
"9 ] :.2.2.:.W 2.;.$.E ;.2.2.:.:.2.2.:.;.;.K K <.R D x l < : = - - 1 = c J m ~  .| ' H x + 6 L R R <.<.<.:.<.:.:.<.2.8.3.:.3.W r ",
"S :.;.<.2.W W ;.$.] :.<.,.2.2.2.S.W.8.<.;.<.F.D.D.<.[ ' ~ L < - - - 1 ^ M.P.R.|. X].Z.H + L x 3.D.N.<.3.2.[ 3.<.:.:.<.] <.2.2.r ",
";.2.8.8.2.:.W I I ,.F.:.2.:.F.G.G.!.!.F.G.D.S.~.~.L.D.^ Q l.n - - ! ! j.U.R.|.R.|.m.n < ' D.m.D.D.D.N.S.3.3.!.Q.3.:.<.] [ [ :.r ",
";.2.E.W.2.2.>.F F 0.Q.F.^.^.^.^.G.Q.:./.K.~.~.D.L.L.L.'.H.{ b > f ) j.k.C.R.P.A.v > ~  .L.L.}.}.~.K.G.D.S.!.!.~./.D.W.!.!.2.<.G ",
":.E.).W.F.<.T T F.Q.Q.W.Q.Q.^.oXoXQ.K W oXoX~.'.~.L.H.J.Y.Z.v b b / ) k./ V B > v C ) M.H.H.-X-XD.L.L.~.K.~.oX!.!.G.^.!.!.!.:.F ",
"2.G.Q.F.8.2.$.;.W.!./._./.).oX+X&X;XK [.[.oX~.'.Y.Y.L.J.I.M.b j / j.( V V V B k.) Z.M.Y.Y.Y.L.' L [.~.K.oX~.[.~./.G.!.[././.<.F ",
":.F.F.8.8.;.2.W.^._.)./.).oXOX@X>X&XOXOXOX~.~.'.J.*X].I.M._ b > , h.A V V V b .X.XU.I.I.].Z.J.{.'.-X$XoX[.!.%X&X).!././.!.!.<.F ",
"] 2.2.F.8.F.G.`./.`._.oXoXoXoX@X,XOXoXOXOX'.'.L.{. X].U./ _ B - s h.d h.k B g.P..XR.U.T.|.Y.I.{.Y.K.K.K.~.L.^.;X#XW.W.K.W.8.[ F ",
",.<.,.8.F.W.oXoX/._._.+X+XoX+X:XoXOX:XOX=X'.~.'.|. X].I./ Z s - , - > > > s A g.x.R..XXXXXY.'. X'.<.<.R S.G.T F 2.3.Q.G.F.] R S ",
"<.2.8.F.^.W.)._./.^._.oX).oX+X/.oX/.OXOX@X'.[. X*X|.T./ / _ d - .   =     - k ( k.U..XXXXX X|.].].L.<.L <.:.2.] ;.] ;.T K ] R F ",
"] W 2.G.W.G.^.G.^.).Q.W.^./.W.G.K./.~./.[.].'.Y.|.Y.} _ k._ B k =   -     a.= d V A U.Q J B.T.B.| L L R T L K F F F G R R :.[ r ",
",.T R R 2.2.2.2.F.F.7.7.8.2.:.] 2.<.3.N.S.K.B.N.^ m ! k.k.g.h d b.n..   d.b.s.= k ( A b Q  . .J L L R K D K I G F T T ] ] ] F r ",
"r T T T T T T T W T R T R T K K R L ] ' ' ~ ~ J m ! M.) z.Z , s f.d.    N f.= . > + , Z ) ) ^ ~ ` ' L K T K K G G G R ] W 8 y 8 ",
"9 W K T ] 2.:.2.2.2.:.R G T ] ] 3.2.<.<.3.| ^ |  .} } } B g > , > > O   > - O + > + = = , Q ~ H D H D 6 D G F 9 5 8 2 5 r y 2 @ ",
"; G R ;.] :.;.2.:.,.,.7.7.2.2.2.:.:.:.N.[ n H n z z v g g g = , k h h M k M k k B B g - f l z - < < : + + + # ; 3 2 # 4 8 e 8 # ",
"# 9 G r r 6 8 @ 6 8 e 8 3 5 6 W D D 6 7 H H n ~ Q f v b _ C j _ h.h.V h.h.h.x.x.g.k.) { f 1 1 : + + 6 < 6 S S G G ;.T T >.,.,.,.",
"F S T r T ;.$.3 T ;.R K F D 8 6 # # ; 7 1.' | { ^  . .z.l.z.c.k.k.v.C.c.c.k.k.C.k.z.l.l.) 1 < < : H 9 R T :.] 2.:.,.7.7.7.2.W >.",
"$.,.,.7.,.7.>.E ,.7.,.W ] [ T # + ; S 1.<.1.| 1.m.B.M.m.M.z.j.c.k.g.c.V.k.k.z.V.M.l.B. .N.1 - < 7 K 3.8.8.2.7.2.2.7.7.0.0.2.2.7.",
"7.2.,.,.,.8.E $.,.,.;.:.7.2.:.; + [ ] <.8.N.3.<.1.1. .l.Z.l.z.M.} ) Z.k.z.V.M.M.M.l.l.m. .L - 1 < ` <.] ] :.2.8.0.F.8.0.E.E.7.2.",
",.7.>.,.,.E I 0.8.7.0.>.7.7.2.3 r ,.<.[ <.2.| 1.K.1.~ {.|.{.I.M.J.Z.U.].C.P.A.T. X*X . .| | 7 9 6 R [ ] :.7.8.8.,.W 7.G.,.W F.7.",
",.,.7.E.E I 2.^.Q.).2.7.7.8.>.5 8 R :.:.] N.S.~.L.D.L {.{.].{.|.T.I.{.T.{.].T. X{.*XL.m.| ~ 7 6 D ] :.2.G.W.8.0.W I W W.;.W F.7.",
"9.0.F.W.F I _.^./.^./.G.,.7.E 5 8 ] ] ;.S.S.G.L.[.=XOX*XL.Y.].|.|. XY.T.{.'.{.{.*X{.L.B.| ~ H : x K 2.S.F.8.F.E.F.$.^.Q.Q.0.7.>.",
"W.0.Q.7.y 0.^._.!.^.^.!.;.,.W q G >.;.8.F.G.~.G.G.K.[.m.N.'.'.'.{.{.].Y.{.Y.Y.].Y.'.K.1.| ` ` 6 K 2.3.F.G.8.8.8.0.0.Q.G.F.7.:.2.",
")._.`.0.y ).E./.!.^.^.Q.;.>.G G W 2.W.!.~./.OX[.[.D.[.~.K.N.3.L.'.'.{.~.Y.'.'.[.'.~.1.| ' ' x : K 2.3.W.F.G D y E.8.0.F.>.F E ;.",
"Q._._.Q.P W 0.Q.Q.Q.W.).F.:.T P >.F.G.W.W./.~.OX!.~.[.L.3.D.3.K.OX'.D.L.G.{.'.[.[.~.[ [ [ R < : 9 2.$.,.,.F F D W 0.7.7.E I E ;.",
"Q.).+X).F I 0.^.Q.W.Q.).8.;.5 T G.Q.W.8.W.W.R K R S.[.~.3.G.[.3.D.D.1.1.N.K.G.[ D.` ' | ` ] 7 3 W :.W 2.,.S r G 7.7.$.;.>.$.E >.",
"8.Q.).Q.e e 7.^.^.W.Q.).E 4 5 $.E.W.Q.2.3./.W K 2.!.G.2.<.~.K.` L 3.1.3.N.S.' ' ` [ ` ] ` [ K 8 6 2.T 7.0.>.E ;.7.,.E ,.>.W ;.;.",
"2.F.8.F.P y 7.).Q.W.Q.:.:.4 2 8 7.>.2.W ;.W././.G.3.[ L R S./.3.` <.| 3.K H D ] L L [ ] [ T D O @ D 2.2.E W W E E W ;.] W >.>.7.",
";.7.2.8.W 7.7.$.F.2.2.T # O . 3 >.,.7.0.,.2.F.8.] W F K K R ;.' K R R T K K D ' ] ] 2.2.R 6 # + @ ; r ,.;.;.;.>.>.>.7.,.2.,.,.7.",
":.7.,.>.>.F.9.T F G D 3 O . O . W :.:.,.2.2.7.2.W G D G K T ` :.[ R K ' <.K R 2.2.2.2.2.@ O ; F D . # x ;.W ,.;.,.,.>.W R ,.;.7.",
"2.:.:.;.E ,.:.W e 4 I 2 2 . # 8 4 ; 4 2 r G I T $.r I <.:.:.2.2.2.2.2.8.2.:.3.3.3.:.:.` @ O 3 :.E 3 @ # O @ 2 4 8 S r r 8 r 8 O ",
"; F F # 2 e W T D # # 8 r e ] 2.] W T S 8 r 8 S G r F 8 6 8 3 ] 2.[ :.] T D S F + @ ; 2 ; 8 r G E 5 # 5 @ # 3 r T W ;.>.>.>.y . ",
"@ # 3 2 2 e :.] D 5 F W T 2.:.2.2.,.2.7.2.2.2.2.7.3.] G G 3 3 3 r 8 S 3 ; 3 : 3 G F 9 T 2.,.F 4 e r 4.2.>.,.,.2.>.2.>.4.,.,.>.. ",
"2 # 2 4 I ,.,.9.,.7.7.2.,.7.2.,.7.7.9.;.2.,.,.7.,.>.>.>.;.W . O ; 4 @ 8 9 r T W >.2.8.7.,.7.,.Y $.4.,.4.>.4.7.9.7.0.0.Q.0.4.,.4 ",
"2 2 5 ,.7.,.,.,.>.7.4.,.7.,.,.2.7.4.2.0.7.7.4.,.>.,.$.,.;.>.G . O 2 r r I 2.>.,.7.,.9.7.,.0.$.,.7.0.0.E.).).).W.).E.E.0.Q.Q.4.Y ",
">.%.,.7.7.0.,.7.0.7.7.7.0.,.,.0.7.7.0.F.E.0.,.7.,.O.a $.7.>.E . @ r 2.I F 7.,.W >.:.,.7.0.0.7.).)._.).Q.`.Q.).`.).y.,.7.>.Q.W.E ",
",.,.,.,.Q.,.7.7.0.y.7.7.9.7.8.W.E.W.i.(.).W.0.7.7.7.U ..+.$.] O 3 I E I y 7.7.>.W W W 9.W.8.0.).Q._.:X`.E.y.Q.`.7.$.7.4.7.E.E.$.",
"E 9.7.0.).^.0.8.Q.F.W.W.W.W.).^._.i.r.p.oX_.oXoXF.0.=.p 8 P T O 2 W I E e.w.-.,.8.F.8.S.F.T E._.).^.)._.W.Q.W.`.).E.).y.7.W.E.E ",
"y ,.7.Q._.).E E ;.$.W.Q.W.).W ,.7.,.8.8.oXoXp.i.F.W.T r 8 O.t @ @ r @.*.-.e.E.W.^.W.!.G.G.P E Q.^.Q.^.).Q.y.).Q.,.E.Q.).0.;.E.Y ",
"e 7.0.^.`.y.F.Q.y >.0.0.`.oX7.T ,.7.:.0.).+Xp.9.4.4.W r 5 y r X O O.Y #.] ,.^.F.F.^.G.^.8.I F ^.Q.Q.Q.^.#.+.#.Q.0.7.^.^.>.,.E.$.",
"q p 9.F.0.O.%.F.y >.4.Y T :.K x D ;.R 0.E.oX%.4.t.4.:.W r F r + @ O.I G D ;.] F.Q.W.Q.2.,.I F >.^.E.F.0.Y O.Y >.E ,.).E.F.0.0.2.",
"o.o.r ` ,.#.7.F.F.0.E T K L :.S 7.,.9.9.0.^.#.-.5.,.(.;.E P r . * 5 8 T T P Y W 7.....;.W F 6 W ).7.E #.y.y.T T ,.Q.Q.,.F.0.:.9 ",
"w U r K >.;.;.] :.>.R ] W G F.%.7.7.9.9.t.F.0.E.9.t.5.T G w 8 . 4 ; 8 W W t F W 0.*.@.2.E.i x K +X).,.U p &.E 4.W.E.O.4.7.T T 9 ",
"& t X.I i E ;.[ ] R R >.K S ] T 4.4.9.;.7 %.O.%.9 9 Y H e 2 # . # 3 9 ` 5 F G :.E w.,.>.4.i 9 T ).8.0.U i F P %.4.U +.2.P r E e ",
"@ # r G t 0 i R ' R ` D 9 9 S D 7 D S 6 $.F 5 6 6 < # & @ # & @ O @ W ` F 3 % $.Y t 8 5 F G 6 8 E G K p q y t y 8 4 5 & 5 # @ # ",
"@ # ; 3 $ S F D : D F 6 6 3 9 S ; ; ; 6 5 3 6 7 8 # % @ @ @ . X . . @ 8 3 2 o w e w 8 : ; 2 . . . . O @ . @ t u e 5 & ; @ @ @ # ",
"X . . . . 9 G i 8 3 # # @ @ # 2 @ @ # O @ @ X @ X @ @ @ @ @ . . @ O . . @ X o 4 & * X @ @ . . O @ O . @ O @ 4 q & 2 @ @ @ @ @ . "
};
