/* XPM */
static char *c5166de25bd54866e3b82baae148924doRD9vyjdQgwRN4Xe[] = {
/* columns rows colors chars-per-pixel */
"64 64 256 2 ",
"   c #0A0800",
".  c #160B00",
"X  c #1B0B00",
"o  c #180703",
"O  c #1C1401",
"+  c #1A1603",
"@  c #19170C",
"#  c #230B03",
"$  c #221500",
"%  c #2A1503",
"&  c #221A01",
"*  c #2B1C02",
"=  c #27180B",
"-  c #331A03",
";  c #351C0A",
":  c #381807",
">  c #2E1A14",
",  c #37160E",
"<  c #192400",
"1  c #1A3300",
"2  c #232100",
"3  c #2B2301",
"4  c #2C2B00",
"5  c #292308",
"6  c #342102",
"7  c #332B00",
"8  c #3C2C01",
"9  c #392509",
"0  c #2A3600",
"q  c #343200",
"w  c #3C3401",
"e  c #393806",
"r  c #2C2413",
"t  c #382516",
"y  c #3D3617",
"u  c #3E3422",
"i  c #441B06",
"p  c #4B1D10",
"a  c #661910",
"s  c #462606",
"d  c #552809",
"f  c #423502",
"g  c #4B3502",
"h  c #463908",
"j  c #563707",
"k  c #462616",
"l  c #562917",
"z  c #433515",
"x  c #493917",
"c  c #583717",
"v  c #652A0A",
"b  c #66380B",
"n  c #79370B",
"m  c #682B17",
"M  c #742C18",
"N  c #6C3314",
"B  c #673818",
"V  c #743315",
"C  c #75351B",
"Z  c #7A3917",
"A  c #762C09",
"S  c #472B26",
"D  c #542C22",
"F  c #4A3427",
"G  c #583726",
"H  c #563834",
"J  c #4E3730",
"K  c #64342A",
"L  c #623A2B",
"P  c #673826",
"I  c #773827",
"U  c #673B34",
"Y  c #7A3B34",
"T  c #722E22",
"R  c #2B4400",
"E  c #354401",
"W  c #395600",
"Q  c #3D7200",
"!  c #464505",
"~  c #544304",
"^  c #5B440B",
"/  c #5C4C0A",
"(  c #554907",
")  c #475703",
"_  c #585306",
"`  c #4B4516",
"'  c #574618",
"]  c #585318",
"[  c #4C5015",
"{  c #64450B",
"}  c #684809",
"|  c #764609",
" . c #675607",
".. c #765809",
"X. c #674716",
"o. c #7D4315",
"O. c #744B19",
"+. c #784818",
"@. c #685518",
"#. c #75531A",
"$. c #785617",
"%. c #486601",
"&. c #4B7202",
"*. c #596E09",
"=. c #686808",
"-. c #76660B",
";. c #78750A",
":. c #696316",
">. c #766515",
",. c #7A7516",
"<. c #697510",
"1. c #4D4426",
"2. c #574725",
"3. c #5B5226",
"4. c #5A4A31",
"5. c #524932",
"6. c #664626",
"7. c #784826",
"8. c #685525",
"9. c #765726",
"0. c #694535",
"q. c #734C32",
"w. c #774438",
"e. c #685735",
"r. c #745433",
"t. c #795838",
"y. c #666328",
"u. c #72632A",
"i. c #786727",
"p. c #777426",
"a. c #766638",
"s. c #6F7031",
"d. c #7D4C4A",
"f. c #7B4844",
"g. c #795646",
"h. c #7D5758",
"j. c #665740",
"k. c #786546",
"l. c #797657",
"z. c #776F4D",
"x. c #7E6A60",
"c. c #8D340B",
"v. c #893C0B",
"b. c #98360C",
"n. c #873817",
"m. c #983A14",
"M. c #912D08",
"N. c #A63307",
"B. c #A73A0E",
"V. c #833925",
"C. c #843B33",
"Z. c #864809",
"A. c #964B03",
"S. c #885409",
"D. c #844618",
"F. c #875517",
"G. c #98540D",
"H. c #A85502",
"J. c #A64E0B",
"K. c #866807",
"L. c #877405",
"P. c #967707",
"I. c #886617",
"U. c #937617",
"Y. c #AC730D",
"T. c #86482A",
"R. c #835726",
"E. c #854538",
"W. c #914F32",
"Q. c #A94D2F",
"!. c #856739",
"~. c #8A722E",
"^. c #AA7B2F",
"/. c #D0662E",
"(. c #844B47",
"). c #885647",
"_. c #985446",
"`. c #855754",
"'. c #985B54",
"]. c #964C42",
"[. c #A9584A",
"{. c #887349",
"}. c #8E6052",
"|. c #966458",
" X c #93714F",
".X c #A96858",
"XX c #A97955",
"oX c #AE6C4F",
"OX c #815D60",
"+X c #8A6468",
"@X c #9C6968",
"#X c #9F6C71",
"$X c #A56965",
"%X c #A97267",
"&X c #B6746A",
"*X c #AB7372",
"=X c #A97375",
"-X c #B77878",
";X c #A46E71",
":X c #C47972",
">X c #D56248",
",X c #548903",
"<X c #6B8C0F",
"1X c #56AB00",
"2X c #66A605",
"3X c #67BB00",
"4X c #71B304",
"5X c #7D892C",
"6X c #76F100",
"7X c #5BD600",
"8X c #988A16",
"9X c #928C0D",
"0X c #A78A07",
"qX c #B98C06",
"wX c #A88B18",
"eX c #B2940F",
"rX c #B6AB12",
"tX c #898723",
"yX c #AB892B",
"uX c #C59708",
"iX c #D99A15",
"pX c #CE8F10",
"aX c #C9AA06",
"sX c #D7AB04",
"dX c #D9B706",
"fX c #CDB00F",
"gX c #E8B80F",
"hX c #D6AE25",
"jX c #EEAB2A",
"kX c #D7C606",
"lX c #E9CA02",
"zX c #F9CC04",
"xX c #FED501",
"cX c #FFDC00",
"vX c #FAD707",
"bX c #F0CF0F",
"nX c #FEE400",
"mX c #FBEB03",
"MX c #FDFC00",
"NX c #FDE617",
"BX c #FDDD27",
"VX c #8E8855",
"CX c #AC8357",
"ZX c #978E69",
"AX c #B58662",
"SX c #AD8B6E",
"DX c #AFA87B",
"FX c #CE8578",
"GX c #C6834E",
"HX c #B97D81",
"JX c #C17F84",
"KX c #C88386",
"LX c #D78A88",
"PX c #D68F91",
"IX c #EA9494",
"UX c #FFAEAC",
/* pixels */
"o K o % X = , = ; c O x r.).t.t.x q.2.F x X + + 5 & O O . O & $ o K o = o = , , q.t.& G r.!.t.t.` q.G F F O O + 5 & + O . $ $ # ",
"o K G @X&X(.(.k F k 5 c q.}.}.}.t.g.|.g.G 5 & t 4.4.t 9 O F t X o K L @X&Xd.(.`.&X|.G q.r.`.}.}.r.).|.g.J 5 & t 4.4.t r O 1.t X ",
"J U U w.%XC.0.k G g.0.0.q.`.*X*X*X%X*Xq.g.j.x e.x.1.& k.x.x.g.. J K U w..XC.].`.PX*X0.0.q.).*X*X*X%X%Xr.t.j.z e.l.F & k.x.x.j.o ",
"f.F p l l l K l q.PXP @Xl r.=XFX*X}.$XC 6.e.y 2.` 4.$ ' k.F y J f.F p l l K '.w..XLXG @Xl q.-XKX=X}.$XC 6.g.e 5.' 4.$ X.k.x z J ",
"K J : l K : k -Xd.PX'.KXKXs 0.IX=Xv |.+.2.' z ` x e & 8.e.z y F K F , l K K (.:Xd.LX}.KXKXs P IX=Xv |.I 2.` h x x h $ 8.e.z z J ",
"D H K D K ; D UXD LXg.KX-X'.B *X.XV ).).e.` ' [ ` h 3 8.e.2.' u J H K D K P Y UXS LX).KX-X'.P *X|.V ].!.r.` ] ] ! h 5 8.e.1.' u ",
"f.#XL K B l L FX0.$XL KXIXKXl |.).V N %XSXa.u.] [ y.3.3.3.ZXb 5.Y #XK K U I f.JXw.$XH KXIXKXl |.).V V %XSXa.e.] [ e.3.] 2.ZXb 5.",
"S IXk P P k 7.IX$X0.U = X $ % X . & O 5 ; 5 + + . 9 G F G r.0.z t.q.|.t.9.r., f (.q.G k , > ; > t # k k o ] ~.R.u.y.` @.e.l.q.5.",
"l ).l P c d B ].PXf.f.. 4.k. X).{.t 5.g. X Xq.9 9 0.e.g..X*X_.|.&XoX:X XoX}.G t.-XKXKXSX-X:X`.UX'.Y I U O ] F.G.n @.X.` e.{.k.x ",
"D w.l P B l B w.LX=X`.t  X XCXSX Xx 6.{.CXZX{.r.4.z.7.[.&XAX&X*X:X&X&XoXoXE.).).PXPX&X%X*X_.P W.n.V.M ).H i.D.A.n | 8.&.!.a.t.x ",
"k Y k k : v T.Y :XLX*XS t.5 ` j.r.8 & z ` ` x w 2.1.X.T.XXW.t.=XIX|.U p =X*X$X%XIX*XP JX(.I V.Z Z M v ).D XXG.R.j D.` 2Xk.{.X.{ ",
"k * 6 k : l I I ].UXHXt 6.y e.e.a.e * x ` ` [ 3.2.' ).).7.(.C %X*Xt.B &XHXHX|.$XLXw.&XIXw.I V.T n.V.- +Xk ~.R.J.d 9.9 <.s.{.9.| ",
"t - U k k d n.E.Y UXKXF 8.g.SXe.3.[ u.y.] y.@.!.{.{.DXXXV V V ).'.B E.LXLX-X@XU `.K IX'.E.I V.V.V.m OXLXG s.u.H.O.q.%.:.s.ZX| ' ",
"S k |.F `.M.b.(.$XHXHXz 7.l.l.a.` ] ^ 8.9.I.G.I.] z.SXz.W.c.v.I q.P C [.C.`._.U U '.LX&XW.I 7.I P K ].-Xk ~.i.A.9.,X<X@.l.VXZ.2.",
"H _.$X#XHXQ.n.w.+X=X).y X.l.1.a.*.[ D.o.s H.D.D.y.VXQ.CXFXW.J.V I n c.C V.Y (.S > `.(.(.T.I Z k K c l ).k H.9.9.X.6Xi.8.s.VXS.X.",
"H '.$X+X_.Q.T.I h.`.w.c Z.e.{.s.2X[ X.D.s F.9.G.G.DXb.O.XX' N n V b.n.C V E.$X;X-XKXY I T.b.>XP w.l l E.t H.i.a.<.<Xr.9.<.VXS.{ ",
"J d.`.h..XC.m.w.h.c w.' | z.VXs.8.&.y 9.j Z.J.9.$.VX!.e.h k i a d v k (.(.$X&XHXUX'.Y I I I m Y (.Y m K S p.>.8.;.F.9.+.i.9.z.} ",
"J d.d.(.:Xm.b.Y K G C.F S.9.ZXs.y.<.*.@.9.S.A.8.[ u F @.9XuXsXsXuXwX| k U (.HXIXIX_.[.7.m.N.Y d.`.JXw.Y S ,.<X:.I.A.9.+.s.!.l.c ",
"H `.d.`.C.b.n.I L G I 2.J.@.VX5X8.p.<.7X] 8.X.x - fXNXfX/ c % - i s P.zXjXG +X$XHX+X|.Y m.B.&X#X#X=X|.w.S G.,X>.9.h +.u.i.9.l.[ ",
"j.OXd.f._.W.n.L c K K ' H.8.z.p.9.u.8.<X*.@.X.L.xX;.< 5 h ^.wXqXP.j : = t gXU.).+Xh.(.V.T.m..X).+X'.JXf.S H.,.@.u.7 $.#.9.~.R.2.",
"H h.d.(.(.n.c.Z P U G { k.a.c 3.X.X.X.| S.:.8X9X& w hXNXaXyX:.@.K.qXgXdX^ @ P !.c 0.f.w.m.m.JXY `.`.w.h.S <X5X( @.| G.+.7.!.#.` ",
"H d.(.K n.V.n.m.6.P l x z.z.' ` c X.c b j 8X .< 9XzXtXr $ $ * : = # > x dXhX> m 7.x U 7.m.N..X_.`.d.f.+XS 5X<Xg A.| S.$.7.9.~.b ",
"U `.f.K Y n.b.I 0.L w.x a.!.' ' B y.j < >. .. kXxXxX3.r & $ y F > t > = vXvXzX# * eXP K n.m.W.w.d.d.`.h.J i.E Z.Y.S.D.7.O.Z ~.v.",
"U f.C f.m B.v.P G w..Xz @.!.` c O.| A...L.& 9XmXcXMXzX3 @ . r S > > = U.bXgXaXsXk h O.c.n.n._.f.d.f.h.h.G y.s.I.tX@.o.9.+.V l.c ",
"G C.m v N.m.T L l U Q.^ Y.t.c B 9.Z | uX6 0X9XkXmXmXvXK.% + = r @ X 9 vXzXgXgXR.R.# uXZ.n.n.V.n.P (.f.h.D _ ,.5Xp.p.+.i.T.V VXG ",
"H C.m l N.n.E.|.c 0.W.X.R.a.C O.9.b P...K.vXxX9XkXmXmXmX6 O r r @ X eXvXvXvXbXhXzX... dXM.N.U T Y Y f.`.G <X>.,.[ i.s.p.@.p.{.c ",
"H T m b.N.T E.(.(.w.B x k.!.V +.9.X.D.% 8XMXkXrXlXvXnXnX0X@ = r @ x NXNXwXgXiX&XvXlXX eXv c.b.M.U m w.C.D =.p.~.4 :.i.9.Z.,.g.G ",
"D I I N.Q.].[.'.[.'.| x q.ZX+.#.p.@.8X4 bXhXrXlXcXmXnXnXnX5 h / = BXcXxXlXzXxXxXdXzXs D I.T.N.N.d m Y E.D >.F.I.0 ~.~.s.#.{ t.2.",
"D C.Y ].Q.[.>X>X>X.XW.x T.a.p.Z.@.L.( 7 lXvXrXlXlXmXMXMXmXlX~ h eXNXxXxXxXzXqXI.yXzXeX, iXT m.N.M.m T f.k @.>.] ] i.a.u.} F.t.4.",
"D C.].].>X>X>X>X>X>X[.2.t.9.j X.9 aX7 ;.lXlXsXK.8XsXmXMXmX$ O = @ P.xXxXvXvXW.Y.hXvXbX# bXT Y m.b.I T C.k E i.q ] @.i.0 ~ | 7.4.",
"p T [.Y /.Q.Z Z 6.T.[.0.E.r.Z.{ 5 aX7 0XmXkXlXrXdX9XcXMXL.3 O + @ 9 xXxXzXY.yX^.gXzXzX# gXE.b.m f.C.f.C.k u.( ! _ ] :.~ < A.Z 2.",
"p T [.T ].&Xv.XX.Xw._.2.7.X.A.4 < rX4 0X9X.   + +   X 3 <X0 # + @ 9 -.. k b o o o s zX# sX(.b.T Y Y T I i i.! q _ ] 9.v.1 H.v.X.",
"p V.E., AXAXT.AXCXB T.6.B J.A.1 A qX7 L.0X4 E 0 O + + . dX+ r # @ 0X; . X # o X # j zXo gXT I T Y C.m Y , >.@.E / [ 9.$.] A.n 6.",
"p C.T.m _.XXB .XB s [.4.V A.} ` i.K.f f aX( ) U.( + + + + bX{ g eX} X # o > = o o P.sX# zXT Y V.C.a Y C., >. .%.0 ( D.u.` j | 6.",
"p C.Q.p t.6.B 9.c o [.6.X.A.4 ! u.$.P.2 lX<X<X8X,.+ +     vXxXxXcX9 X $   ] , # o aX| : uXP I T m a V.C., !.} 1X0 ] c.9.[ | | 6.",
"p I E.7.XXAX XAX X% o.2.o.J.q <.wXwXeX+ 0X<X) + O + =   ;.cXxXxXiXiX. >.>.;./ X 3 zX% I.9.T V.m m T T a : !.} &.,X/ c.n.[ } n.2.",
"i T I , AXXX!.AX6.9 B ' Z D.j Q tXwXwXU.tXkX<.9XtX> 5 O cXrXfXxXiXiX{ I.#   o   aX0Xo zXd d T m T m a i , {.} ! <X' v.n.Q b n.] ",
"p C.C.i X.c b C c k 7.e.7.B Z.` 8.F.tX8X,.rXrX:.~.e $ 0XyXeXwXpXiXqXuX- # o   ..bX* -.U.v.: : N V.m T C., CX3.@.&.~ 9.#.] $.T.e.",
"D C.C.:  X7.!.XXX.r b x < 2.8.7 + tXtX-.L.%.lXrXs.O 6 sXeXpXiXwXwX8XpX-.# # { pXY.% lXZ n.s B I M M V.(.t ZX{.' 2Xz CX+ ! X.9 ` ",
"J C.C.K CXCXXXXXq.* +.1.a.6.8.h e U.;.} eX) >.dXgX$ gXxXxXsXsXuX8X9XuXsXb Y.gXY.- aXj T.T.j - W.T m T T ,  X{.{ <X^ x 3 4  X2.e ",
": W.W.k !.6.7.9.9 % b.5.{.h ` ` ` >. .O.o.rX~.9 bXBXjXpX/.eXwXwX8X8XwXeXiXgX| # qX} X.R.W.b 6 P - M T C.t R.#.@.#.O.( 9.' ! t.a.",
"H V.M . ; X = % O ' A.' t.a.6.h z >.b.| ..Z.hXI.' U.jXgXiXpXwX0X9XeXpXsXqX6 } dX .8 t.D.q.B g - * M m V.D AX XXXS.O. .8.` 8.8.5.",
"D T M - s j q.l 9.^ !.2. Xr.g ~ ^ - c.v.$.v.B uXqX+.} f qXxXzXY.9XdX .+ b Y.iXw 3 | r.B x & 8 6 d b p V.k SXVX~.Z.| Z.X.j a.a.2.",
"a M v k 7 - c 9.F.{ @.3.DX4 7 } g i c.M.M.n o./ I.qXwXI.% - i s 7 & 9XwXsX0X. 7 | !.r.7 & 8 ( f B d d n.p #.X.D.$.v.N ^ j @.{.4.",
"l N d B 0 s 5 f !.} ~ 3.AX2 7 _ f : M.c.b.v.{ { =.X.U.P.aXwXuXuXuXuXuXY.r + < } H.9.!.j g b X.j X.j j M : @. .o.v.M.A j  .e {.e.",
"d m d X.~ j 7 X.k.H.-.1.l.< g ~ + : M.Z.D.c.+.@._ j X.@.8XwXY.U._ g q ! w 1.]  .F.I.$.X.6.O.7.0.B j d n.k $.$.v.c.b.A : ..q a.e.",
"p i s ^ B C c ..R.G./ ` z.X.f s X X : / $.$.| ..>.O.' j @...d j q 4 R f  .u.|  .( S.| r.t.6.r.g.2.j V Z d >...D.c.v.b.w =.h 8.e.",
"s i j B t.X.7.{ I.I._ x 7.F.7 : d     b $.>.....>.+.+.O.#.b ~ j ( ) R %.h _ S._ E ( @.( k.8.' h h n n.V k =.$.n.Z.o.M.8 ( _ 1.3.",
"i i j 6.g.6.r.8.S._  .8 7.G._ b.N.  7 O.>.>.>.$.F.+.O.O.F.Z.......=.W 7X1X) .._ _ _  .~ e.e.7 8 ~ g b M , >...+.F./ M.& g ( a.2.",
"d i d x 8.6.k.} } q ..s 7.F.' c.b.d 7 +.+.-.$.$.7.+.O.+.+.Z.Z...Z.Z._ %.6X4X-.=.s.( q (  .h q 3 f 6.j V ; $.} ..$.O.1 j ' } R.1.",
"i s g j q ' a.~ ( _  .z 7.#. .b.c.b & X.<.-.$.$.>.| | +.+.Z.Z.| A.S. .W F.!.p...` ! q q E w 4 4 ' g.B V 9 F.$.-.>.+.4 v n...G.c ",
"# : 6 ~ & ' 8./ _ _  .z T.#.*.n.b.i O +.=.-...#.>.+.+.+.#.D. ...A.S.R 0 L.5X .0 e z ` q 7 4 q 7 j 2.b V - +.+.>.-.O.3 v b./ D.y ",
"* : 5 % 3 w / E h s...x E.O.*.n.m.v & l =.>.Z.Z #.N X.+.+.$.@...S.<.7 0 <X9X .,X) y 2.e 7 4 3.x ' g b b $ 7.$.>...+.& b.c.@.R.l ",
"6 d z 3 O & e 7 E ` -.l I T.j v c.A % s +.} b.V o.b N { $.O. ..._ Q 0 e &.<X2X4X! y.u.] 3 W e.( x j n V % #.#...;.@.+ m.b._ 7.x ",
": n.2.8 O O & e z w E z s *   J.m.A & k O.V b m Z Z j Z } } .. . .;.) q R 2X4X@._ #.#.! w %.! ~ g 7 8 l % #.#.>.=.O.. c.m._ 7.c ",
"$ n.g j q 3 2 e z h E ; # $ c.n.c.c.$ h 3X~ j M I n.j D.b | { _  .L.=.q E *.4X ._ _ ( e h E 1Xw g 3 6 s % $.o.>.<.m + c.Z =.7.c ",
"$ n j 2.e.1.2 e ' &.1X% : % c.b.b.B.s } 6XO.v C M s 6 D.N | ~ ^ } K.=.q q 2X<X ._ _ { ' 4 w ,X~ 8 - s % : | N Z.:.d $ B.Z _ T.l ",
"- n.j e @.W & ^ a.E 2X- : # s s d i d a <.a d p % % - d f f j } } | ) q q ,X*._ / ( h { 2 4 ! g 3 ; - O ; o.N v.7.s % B.B c C G ",
"% d 7 g ~ %.6 h $._ >.: $ $ $ O $ % s ; , % % $ t k - 3 * 3 6 7 e q q 7 0 &.) h e w h q 3 2 3 & $ 6 * ; % Z v b +.s : B.B.  6 k ",
"# z 3 g q ,Xw q _ _ @.4XE 0 L. ./ } X.+.N I N / *.d % b.b.d $ ; $ s 3 g e ,Xh ! _ _ ..4XE 0 L. ._ } } +.V Z N { *.j % b.m.d $ 9 ",
": - 6 f %.&.3 f _ _ } 3X7 R L.../ } o.Z 6 V.m v 3X*.d b.c.n o : : - 3 s %.&.q { _ _ } 3X7 R L...^ } D.Z 6 n.N m 3X=.s b.c.n X : ",
"* : s s _ E 2 s / _ { 3Xw E -.{ ^ g j n.$ i V M 2Xa M v.v.v - % * ; s f _ E 4 c / / / 3Xw R K.{ ^ g j D.& : C M 2Xa M v.v.v - % ",
"; $ 3 O 8 7 3 f h / ( 2X4 4 / } } 8 8 6 - ; % k m l i % $ $ X : ; O * & 8 7 2 ( g ( ( 2X7 0 / { } 8 8 - * ; % p l l i % $ $ X : ",
"% * 6 & 2 3 3 q f w ! %.0 7 7 8 4 3 * & 9 k $ % % : : O # $ $ i % * 6 & 3 3 3 q f w ! %.0 7 4 8 4 3 3 & 9 k $ % % , i O X $ % : "
};
