/* XPM */
static char *_df6311ce0e046f3da2d7ced4d78494eHrSngLrEAGE6mJKp[] = {
/* columns rows colors chars-per-pixel */
"64 64 255 2 ",
"   c #040000",
".  c #0C0100",
"X  c #0B0B00",
"o  c #140200",
"O  c #1B0200",
"+  c #150B00",
"@  c #1C0C00",
"#  c #0B1600",
"$  c #151400",
"%  c #1B1400",
"&  c #1C1A00",
"*  c #151900",
"=  c #220400",
"-  c #230A00",
";  c #2B0B01",
":  c #2C0602",
">  c #340B00",
",  c #3B0C02",
"<  c #221500",
"1  c #2C1400",
"2  c #231C00",
"3  c #2B1D00",
"4  c #341500",
"5  c #341C00",
"6  c #3B1706",
"7  c #371711",
"8  c #1D2100",
"9  c #1A2900",
"0  c #1A3700",
"q  c #232200",
"w  c #2B2200",
"e  c #2B2B01",
"r  c #272703",
"t  c #342202",
"y  c #3C2400",
"u  c #342B01",
"i  c #3D2B00",
"p  c #38280B",
"a  c #2B3300",
"s  c #273900",
"d  c #333300",
"f  c #3C3301",
"g  c #3A3A03",
"h  c #3D2E15",
"j  c #440D00",
"k  c #431502",
"l  c #4C1400",
"z  c #441C00",
"x  c #441B0A",
"c  c #4A1B0C",
"v  c #481B03",
"b  c #521501",
"n  c #541A02",
"m  c #5C1D03",
"M  c #581808",
"N  c #4A1D13",
"B  c #591D13",
"V  c #631B02",
"C  c #651A09",
"Z  c #741B00",
"A  c #7C1D00",
"S  c #771700",
"D  c #651D15",
"F  c #432300",
"G  c #4B2200",
"H  c #422B00",
"J  c #4C2B01",
"K  c #49250B",
"L  c #522200",
"P  c #5C2302",
"I  c #532B00",
"U  c #5B2C01",
"Y  c #59280B",
"T  c #433400",
"R  c #4B3300",
"E  c #423C00",
"W  c #4A3B00",
"Q  c #47360C",
"!  c #533400",
"~  c #5C3401",
"^  c #533B00",
"/  c #5B3C01",
"(  c #5C350B",
")  c #57390B",
"_  c #4C2214",
"`  c #4A2719",
"'  c #532214",
"]  c #5B2414",
"[  c #5C2A15",
"{  c #572819",
"}  c #453616",
"|  c #5A351B",
" . c #593717",
".. c #642302",
"X. c #642C01",
"o. c #6B2B00",
"O. c #63220B",
"+. c #632B0B",
"@. c #6C2605",
"#. c #732200",
"$. c #7D2200",
"%. c #732A01",
"&. c #7D2A01",
"*. c #762A0A",
"=. c #633403",
"-. c #6A3400",
";. c #633C01",
":. c #6A3A01",
">. c #62340A",
",. c #633C0A",
"<. c #6A380A",
"1. c #723400",
"2. c #733B00",
"3. c #7A3803",
"4. c #66231C",
"5. c #662817",
"6. c #633415",
"7. c #663817",
"8. c #753214",
"9. c #572B23",
"0. c #5B3726",
"q. c #5A3A38",
"w. c #493125",
"e. c #642B23",
"r. c #672B25",
"t. c #65332C",
"y. c #663727",
"u. c #743529",
"i. c #653532",
"p. c #663A36",
"a. c #753A34",
"s. c #712E26",
"d. c #2A4300",
"f. c #364600",
"g. c #385A00",
"h. c #386F00",
"j. c #1F4100",
"k. c #4B4400",
"l. c #484505",
"z. c #534301",
"x. c #5B4401",
"c. c #5C4B00",
"v. c #5C440C",
"b. c #5B4A0C",
"n. c #544807",
"m. c #4A5602",
"M. c #5B5200",
"N. c #565606",
"B. c #594616",
"V. c #5B5518",
"C. c #4C4315",
"Z. c #634302",
"A. c #6B4301",
"S. c #634A01",
"D. c #63420C",
"F. c #664A09",
"G. c #734401",
"H. c #794703",
"J. c #645707",
"K. c #755603",
"L. c #624B15",
"P. c #65431A",
"I. c #654616",
"U. c #774916",
"Y. c #635616",
"T. c #75581A",
"R. c #476500",
"E. c #586603",
"W. c #477600",
"Q. c #597900",
"!. c #786404",
"~. c #646614",
"^. c #686E06",
"/. c #594725",
"(. c #5A5524",
"). c #5C4A36",
"_. c #5D5636",
"`. c #654B22",
"'. c #654427",
"]. c #774827",
"[. c #645222",
"{. c #655827",
"}. c #765A29",
"|. c #674536",
" X c #774638",
".X c #645839",
"XX c #755C35",
"oX c #5E6731",
"OX c #726527",
"+X c #796536",
"@X c #75773A",
"#X c #696E2E",
"$X c #643E40",
"%X c #664545",
"&X c #784845",
"*X c #615341",
"=X c #794F4E",
"-X c #787343",
";X c #5E4243",
":X c #8A1C00",
">X c #821A00",
",X c #971B00",
"<X c #862600",
"1X c #863800",
"2X c #943C00",
"3X c #932100",
"4X c #942C17",
"5X c #884600",
"6X c #885801",
"7X c #8B4C14",
"8X c #8B6509",
"9X c #864538",
"0X c #8E5636",
"qX c #A3462B",
"wX c #886E34",
"eX c #884B46",
"rX c #89564B",
"tX c #8D5856",
"yX c #945A58",
"uX c #95544C",
"iX c #876947",
"pX c #8A7347",
"aX c #8E6452",
"sX c #987A54",
"dX c #957050",
"fX c #AD6D56",
"gX c #995D63",
"hX c #9C6263",
"jX c #A66667",
"kX c #BA716B",
"lX c #B76D6E",
"zX c #A45D59",
"xX c #C97976",
"cX c #C87572",
"vX c #3D8A00",
"bX c #4A8800",
"nX c #578501",
"mX c #4D9A00",
"MX c #658A00",
"NX c #56A600",
"BX c #4EB200",
"VX c #67AE00",
"CX c #7C8F2E",
"ZX c #55D300",
"AX c #67D000",
"SX c #6BF700",
"DX c #7D8040",
"FX c #92864C",
"GX c #B49C56",
"HX c #D58878",
"JX c #CC916C",
"KX c #C8A466",
"LX c #C6A45E",
"PX c #DC8582",
"IX c #E69886",
/* pixels */
"    6 6 . . o .   . o o o o - = ` | | | 8 . - B.B.| '. X X .|  .q Q  .|  .p 7 p p 1           . + + +   .   .           . .   o ",
"  . N N ` N q.lXcXp.%Xr.s.i.i.eXyXuX XrX| 7 ` | | |  .tXyX'.|. X'.| |  X=X|./.y.} t 7   +   . p } h h } r o @ %   & ` 1 1 .   . ",
". %Xw.N N N c eXkXD r.4.a.a.r.tXkXkXtXtX|.x ` { |  .| rXyXtXtXtXgXtXrXtXyXrXy.| 0.|._.p w w p *X*X.X).+ + o h *X*X*X*X*Xw.).  . ",
"7 tX$XO o c 6 6 6 c c B a. Xr.u.a.jXjXlX7.0.gXw.6 x  .p.tXtXyXcXyXyX XrXyX XO.Y [ Q ).} w w p } d } *Xo o + u ) |.).w.$ 3 3 ;X. ",
"= a.q.o o , , , x N N _ r.a.xXa.9.rXjXxXjXi.jXgXhXhX, k N y.lXxXyXtXP P &X].m | Q p p p w e u u u u f o . + i  .} /.h & 1 t w.$ ",
"= $X%XO O e.c c c _ { ' t.r.PXPXN 9.tXxXyX9.jXjXjXjXjXB Y  .rXtXtXa.P 5.9X[ 7. X'.} f p Q i f f u u u & o 2 u /.C.C.0.8 t Y w.+ ",
": yXjXq.0.k c N N [ ] ' t.s.9XPX&X{ eX&X0.{ jXjXlXPXcXyXc c y.rXrXY V m V Y ].sXsXiXC.XX}.g T l.l.d (.g B.d f C.h (.sX_.I J *XX ",
"= %XkXkXx N N ' { [ ' ] 5.s.zXPXxX` 9.9.9.9.tX=X9X8.lXD V K 7.|  .[ ..m ..@.).dXiXpXC.C.{.3.A.{.C.Y.Y.g d g Q l.u XX.X*X). .).$ ",
": 9.eX' k c N ] B [ ] @.<X Xa.a.lXlX$X9.9.i.a.a.u.u.5.O.C V P 0.P P <X<X| rX(.aXpX-X} l.v.1X5X1X1Xz T o...g g r u }..X*X*X)  .& ",
"= 9.t.x x k c D ] @.$.Y *.y.r.u.eXPXPX$X$XeX9Xs.C C V V <X$.m P O.U 1X%.0XcXfX7X1XsX{.b.D.-.o.1X1X5 G -.o.l.a W.V.}.`.(.*X^ I & ",
"= c r.x k k r.r.' qXqXA 6.*.[ 4.s.PXPXgXgXtXeXs.V O.O.' &.<X$.P @.P Y J H 0X) 1X<XpXFX5X1X<.<.<.X.; P >.Q w R.bXV.(.XX/.) -.3.3 ",
": N c x c N r.&X] c P 5.O.[ ] 5.s.eXPXPXgXgXeXuXu.u.eX{ m A @.3X<X<Xo.7.B.) {.7X7XFXpXG.H.v.1X1Xn 4 ( B.y 2 h.v.V.(.oX-X(.U %.y ",
": w.B N r.zXa.$Xi.] C :X<X5.[ s.s.a.PXPXxXhXjXyXlXjXhXu.e.].+.<X<X:X<.3.1X.X+XJXKXFX#XN.V.D.1X1XX.) <.Q d g.R.n.V.V.-X-X^ X.) 2 ",
"; w.r.i.yXjX&X$Xp.=X<X:X:X*.[ 9XuXeXgXlXlXtXyX9XlXyXjX+.*.@.+.o.%.X.>.8.L.T.7X@XFXFXwXF.V.A.1.1./ B.i NXW.E.b.l.#X{.+X@X~ 1X) p ",
": q.e.eXeXtX=XtXgXjXqX,X:X5.[ t.=X%XtXhX&Xp.yX X9X X*.Z <X<X%.<X<X1XU HXfX{.+X+XpXDX5X6XF.,.v.v.v.W AXSXN.~.B.) V.#XDX(.! 2X:.p ",
"@ q.r.jXjX$X=X&Xu. X0X<X*.@.] [ $X$X$X$Xa.9._ a.a. XyXY >X1X5X2X1X3.XXHXHXOXOX@XDXCXK.5Xb.b.b.b.m.R.R.E.B.b.B.) l.~.@X{.z.1X-.u ",
"O q.$Xr.p.$X&Xt.{ lXa.>X<X*.6.] $Xq.` ` t.{ ' |.a.q.|.y.U 1X5X5XL.U..XJX+XOX@X@XLX#X~.J.n.b.n.n.E.H.1XD.B.,.=.;.B.Y.L.P._.{.-.y ",
"O ;X%Xt.i.p.&Xt.9XkX9X,X>X*.6.' ' x 6 N 5.9.q.%X0.0.%X&XrX| '.|.7X6XXXT.U.#XoXFXKX2.2.nXbXm.l.M.M.H.5Xo.B.,.=.,.(.L.L.L.oX_.:.w ",
": %X%Xp.p.p.i. Xe.6.*.S >XY ] _ ` x K _ 4.' 9.q.0.0.%XXXaXaXaXiXJXJXdX7XT.~.wXFXLX2.-.K.Q.l.x.b.b.x.) + J =.V.( L.v.B.L.oX.X) & ",
"7 %X$X%Xp.i.i.r.5.9X9XZ S Z K [ x F x N _ c ` |.q.y.|. XaXsXdXfXHXJXfXF.T.OXT.GXGX^.5X6XK.n.W b.v.) u % J F.b.>.+.Y.L.OX7.I.P.2 ",
"7 $Xp.%Xp.i.i.r.r.9X+.Z Z $.>XK ' c _ 9.N c 9.p.{ 0.p.y.'.aXrXdXJXJXwXB.{.~.8X7X2.nXnXK.Q.N.2 v.F.i y 5X1XU X.,.>.) L.P.P.) ( & ",
"- $X$Xi.i.i.] B O.Z 5.Z V #.*.&.Y ` ` ' N x y.y.{ { y.0. .y.'.XXpXpXXXV.Y.6X6X6X6X^.nXE.nXR.2 ,.:.5X=.3.3.X.>.I.I.+.( L.L.5X1Xw ",
"7 p.p.i.i.r.B N B { +.>X>X<XY ] { ` K ` { e.%Xy.q. .i.P. . .'..XiX-XpXV.!.6XT.GX!.!.J.b.e d 2./ H.5XG.=.G.X.P D.+.~ +.U XXG.1XG ",
": i.r.t.B M i.9.V n >X>X#.#.Y c x x x  XyX9X].q.y.| rXaXrX`.{..XiXdXOX[.{.H.K.8XJ.E.V.m.m.N.K.OX#X!.v.~ ~ >./ >.P >.P +.(.).) p ",
": i.4.5.M l b b ,X:XA P B x x c 6 x { { 7X8.U._ K {  XdX0X0X.X.X-XsX{.[.{.K.8X8X~.M.f.;.S.E.~.~.~.J.~.L.>.( N.B.<.+...>.-X.X .3 ",
"- i.s.r.M b b l ,X:XA *.] 9XeXi.K ' 0._ 8.8.8.K K Y H 9XU.IX].`.L.`.[.Y.T.8X8XwX^.W.nX~ Z.J.J.N.V.q k.V.Y.L.B.~.W ,.=.#XiX| | < ",
"o i.D M B j C ,X:X3X] M B a.a.e.t.9.r.{ K P K ' [ 0.7.6.7XIXP.7./.`.H.G.7XMXVXAXNX^.E.S.Y.J.J.~.9 q E Y.V.J.v.b.;.2.~.z._.+.7.& ",
"= r.r.c M D S ,X<X4.D B a.r.t.i.t.t.i.p.+.U 0.|.y.|.U.].:.7..X.X[.[.A.G.K.MXSXSXnXK.K.N.S.Z.;.Y.e 8 J.J.Y.Y.{.n.! Z.^ J P.7.|.2 ",
"- 4.D r.r.4.r.4.n V D r.r.s.r.t.t.i.|.p.6.6.].=.U.y.:.:.:.( `.`.[.[.Y.6X!.MXSXSXS.A.W b.J.Z.F.2 * J.L.F.L.Y.L.z.! ! 1.) `.7.).r ",
"O D D r.r.4.4.r.M :X,X9X9X@.U r.r.....i.t.t.7.-.<.6.:.:.U.7.`.`.`.`.A.!.MXMXSXG.A.x.0 k.J.k.8 e g k.g n.Y.n.g # * 2.3.(  .+.'.3 ",
"O D D c B 4.4.B b Z 5.u.*.....5.r.o...y.9. .-.-.<.7. .y.7.7.P.`.`.I.2.^.VXVXZ.A.x.0 k.b.W q q g k.g g k.b.k.R % X 8 3.o.I X.| p ",
"O B D b M 4.4.4.M D B r.,X,XP 5.9...5.u.y.' X.U =.( [ 6.7.7.'.P.2.D.dXwXE / / x.B.J.b.L.W * $ r k.d d l.n.,.X...# e 1.2X3.P Y K ",
"O B D D D M D D D D 4.4.4.*.5.4.k ..V +.P n wXuX>.Y 7.6.7.7.P.:.2.2.}.+XC./ / V.V.L.L.c.z.u s 8 W a a k.v.v.<.D.}.& J 2XX.P U h ",
"o 4.D D C j M b D D D D e.4.D O.b L n L L fXfXzXH y 7.7.7.7.7.I.I.D.U.`.V.g l.g V.L.L.x.^ z.g.s # 9 e W / >.v.B.v.# # 3.X.I U h ",
"o D D D D j b b M C D 5.9.i.4.C O.l k z 9X3.1.5 F Y 6.>.! 7.7.7.7.<.F.I.B.C.g h C.Y.Y.I.c.E bXvX0 0 d ^ o.Z %.L.B.9 # 2X3.U y.p ",
"= , j b j C M l l M B n ] { 5.0.0.L J 5 5 +.y 5 G ( <.( R ( ,.,.<.:.<.D.D.D.l.B.dXwX}.L.z.R g.d.W.f.d =.#.Z Z >.Y.* * 1Xo...~ p ",
"o , j j j b C l M 5.> > j b 6.0.9.Q z Q 5 5 y z ~ 1.3.~ R ( >.-.-.1.-.2.5XD.,.D.wXdXXX[.^ R f e nXf.q ,.%.%.#.>.W.0 G I @.V ( p ",
"o B D M j b C D b : = : ..P [ 0.| J y.0.[ 5 F U 3.-.3.U I R =.1.1.1.1.5X5XA.2.I.{.+XpX+XB.g g b.nX% + b.b.o.o.) V.e 1XF +.<.{.h ",
". q.r.D C M b m M [ , > ....+.| I Y 0./.U y <.1X&.X.U U I R ! -.3.1.1.-.Q.H.3.H.D.L.+XsXiXC.g N.NXf.w f N.sX2 X f.% J p t $ % } ",
"O q.D D C M M O.5.4 : z 6.<.+.o.5 i P >.=.8.7.<.1.=.G H ! f R ~ -.-.:.J.A.G.o.;.,.,. .FXsXl.R ^ NXv./ w w 3 + % % w wXB.P.q % r ",
"o , D C M b l M y.; ; v 1.7.8.<.J y y U &.&.7.y.7.! H H J u e f R ~ o.Z.-.-.=.( }.0XU.D.>.) T v.F.~ =.T T i v.Q < B.d u f 0XiXp ",
"= ;XD M b M @ O y ; 5 G 6.8.7.<. .y H J &.&.1.`./.^ H y H i e e g.o.#.%.:.X.~ wXsXsXsXiXT.pXpX}.A.1.X.! x.k.v.H < B.) E u B._.r ",
": 4.C b l m = @ - 5 1 I  .6.<.7.'.^ J I I.I.P.7.;.J y H H u g q W %.#.#.M.R R [.dXsXdXwXXXpXwXD.-.-.W A $.c.x.y - z.B.`.[.B.C.r ",
": D D j k l l - < @ - O K y ~ 7.I.:.! W ! C. ./ G.:.i H k.k.E d X.o.o.o.~ ^ ! P.D.,.,.) ~ ! ( o.o.Z.;.A A 4 1 ^ 5 ^ ! ,..XXX_.p ",
": C n k k v v G + s H + . @ % J B.G.^ ! W H R T ! :.i W.AXm.f.R U -.-.o.I Z.,./ D.<.! / c.H =.#.o.#.S S $.> 4 H R ! R # p dX.Xf ",
"= C V k z 6 G J i y z 5 @ t y B.|.'.1X6XK.T f H B./.B.A.NXm.m.m.! x.o.o.( / / ( <./ >.M.c.! ~ #.#.A <XS S > ; 1 z.^ i # e pXiXp ",
"O M n G 6 z H J G Y U G J i H G.L.I.3.H.x.T T B.Q /.f R d d.f.W ~ -.o.X.^ ^ ! / ,./ c.M.c.~ -.%.$.#.#.S S A - g m.z.T & * +X_.u ",
"= V m k z z H Y 0.| ( Y !  .I J D.H.G.c.k.E C./.B.W E W d.s g n.-.o.#.%.z.W / ;.>.,.c.c.c./ =.#.%.o.X.X.S S l + r W ( a $ *X/.u ",
": V V C v G y 0.).0. .)  ./. ./ ;.:./ d k.;.^ (.S.F.Z.h.h.l.m.c.:.o.%.1.x.x.,.;.<.=.c.M.c.I ~ -.:.=.~ i V b - o . / x.w ) .X/.q ",
"; V V V ..G t i f  .Q Q 0./.W ~ R W r 8 W ;.;.z.k.f.m.f.d.f.k.M.Z.-.-.%.,./ ;.>.~ =.=.c./ ! x.S.c.Z./ J 0 . ; P y / z.J ,. ./.2 ",
"O b #...G F t f r < u  ./.B.i R E f E g g / x.g s 0 mXd.d.f.c.c.S.;.S.-.:./ ~ ;.~ ~ >.A.:./ c.c.c.S./ ! 8 + + S S X.k.3.2X<. .< ",
"O > ..v F 4 w i + $ 2 B.B.i i g E g k.g E c.k.f.ZXBXBXh.s M.:.;.n.-.;.:.-.;.;.=.=.~ ~ >.-.;.c.M.c.x.~ I 1 . o #.Z #.u >.2.( K $ ",
"O > ..F G w.u % + $ 2 3 H f d 2 q d (.b.z.M.V.MXZXMXd.a Z.1.2.1.2.=.1.%.-.;.~ >.U I 7.>.Z.;.x.c.M.,.>.U < + Z A $.Z R x.A.( Y < ",
"- ; V v 0./.0.< $ % % r a * 2 % q u i d S.N.~.{.J.K.s g Z.3.:.3.1.! o.%.o.;.;.>.I X.I c.x./ Z.c.c.N.c.5 o + &.A $.#.W x.<.6.Y % ",
"- = ..G K  .i i % % $ * & & 8 u w w q r s a J.J.K.S.0 s a :.-.2./ ! ^ o.;.,.-.>.>.U >.c.Z.=.c.c.N.m./ G . . b A $.X.k.n.>.6.6.< ",
"o o V ..y 5 t t $ r & $ % % r p w 3 r q r s K.^.^.m.9 q & x.:.1.Z.! / / ;.~ ~ U U U ~ c.~ U ~ M.N.N.P ; . . V A #.P l.k.Y +.6.< ",
"o o V G z H Q y Q /./.$ & % e g } e a bXNXh.S.K.Q.g.9 q 8 g.N.Z.Z.M.! ;.~ =.I I I L G ~ P m &./ n.c.z 1 . - &.$.#.Y k.W 5.+.[ < ",
". , ....G y t $ T } a d.$ r R B.B.(.f s W.bXNXbXW.0 8 8 9 d.d.l.z.k.^ ! ;.>.U G L v P o.@.L &.L @.O.6 - o ; A $.v n 4 +.+.n [ 1 ",
". : 5 1 < @ t t u d f.d.& i u ! / / E E x.E.BXNXs 9 8 8 m.M.M.W W ^ / R J I U G G L P @.P v v v P / P . . j $.<X&.Z   . + ; 4 1 ",
"o o 4 - % @ y 1 3 s vX0 2 g e u g E T E W M.VXW.j.q * 0 S.K.M.W k.T ! I I J X.U v o.O.@.C v v k.6 mX^ O . : S A A $.#.. o . o - ",
"> o o O @ + @ t u h.vXw * q y J T E g E ^ k.mXbXa 2 q 0 J.J.J.R R i R I X.X.X.v ; > O.C O.j k n W.BXvX> O V >XA Z A A v . . - O ",
"o o o ; v o + H E d.f.$ $ $ H y H E E W E E nXbXa & & d.z.A.! R J i w F F z ..P + O @ , m n b C V ZXn l b V Z %.#.%.Z o . : - . ",
"- . . . + + X . < 1 1 + X * i i 5 u i E E d W.bX9 8 & * g R R J J J 5 < @ 1 4 + o + O o . = - , l l k > : = o + . . . . . . : = ",
"o o + + + - . . . + $ X + + $ q w 3 e 8 q d a g.* r & % % % & < $ $ X $ + + + . + 1 1 ; o o . o o o O - ; O . . . . . . . o o : "
};
