/* XPM */
static char *c1e5a08db0dd439986e19baf7f7b45e6r0SyRdf3ITeaMzoI[] = {
/* columns rows colors chars-per-pixel */
"64 64 254 2 ",
"   c #050000",
".  c #0B0100",
"X  c #000C00",
"o  c #0B0C00",
"O  c #140100",
"+  c #1B0200",
"@  c #140C00",
"#  c #1C0B00",
"$  c #0C1400",
"%  c #021B00",
"&  c #0C1B00",
"*  c #001400",
"=  c #141400",
"-  c #1B1500",
";  c #151C00",
":  c #1D1A00",
">  c #220400",
",  c #230B00",
"<  c #2B0B00",
"1  c #290600",
"2  c #370B01",
"3  c #231500",
"4  c #2C1501",
"5  c #231B00",
"6  c #2A1C00",
"7  c #2E1B08",
"8  c #331601",
"9  c #341B00",
"0  c #3A1903",
"q  c #0C2300",
"w  c #0B2C00",
"e  c #062100",
"r  c #142300",
"t  c #1C2300",
"y  c #152B00",
"u  c #1D2B00",
"i  c #0D3100",
"p  c #143400",
"a  c #1C3300",
"s  c #163C00",
"d  c #1B3D00",
"f  c #232200",
"g  c #2A2200",
"h  c #222B00",
"j  c #2A2A00",
"k  c #2E2809",
"l  c #342201",
"z  c #3C2300",
"x  c #342B00",
"c  c #3C2B01",
"v  c #39260B",
"b  c #233400",
"n  c #2B3300",
"m  c #233C00",
"M  c #2B3C00",
"N  c #343300",
"B  c #3C3200",
"V  c #383B02",
"C  c #3D2815",
"Z  c #430C00",
"A  c #441500",
"S  c #4C1400",
"D  c #431B01",
"F  c #4B1B00",
"G  c #491A0A",
"H  c #521502",
"J  c #541B04",
"K  c #5B1A0B",
"L  c #591906",
"P  c #571C13",
"I  c #641B01",
"U  c #651A0B",
"Y  c #651D14",
"T  c #681F11",
"R  c #422201",
"E  c #4C2300",
"W  c #422B00",
"Q  c #4B2B02",
"!  c #48280B",
"~  c #542302",
"^  c #532B01",
"/  c #53220B",
"(  c #5A2707",
")  c #423401",
"_  c #4C3300",
"`  c #433C00",
"'  c #49380A",
"]  c #53340B",
"[  c #583806",
"{  c #482A15",
"}  c #582916",
"|  c #483418",
" . c #533315",
".. c #533519",
"X. c #543C1A",
"o. c #593918",
"O. c #642101",
"+. c #612B02",
"@. c #662909",
"#. c #742B03",
"$. c #653705",
"%. c #763602",
"&. c #662618",
"*. c #643818",
"=. c #763516",
"-. c #4A3423",
";. c #583924",
":. c #573632",
">. c #662B23",
",. c #653925",
"<. c #743A2B",
"1. c #1B4200",
"2. c #1D4A00",
"3. c #174100",
"4. c #1C5A00",
"5. c #234100",
"6. c #2D4300",
"7. c #224B00",
"8. c #2B4B00",
"9. c #324300",
"0. c #3C4A00",
"q. c #384500",
"w. c #235400",
"e. c #285800",
"r. c #345400",
"t. c #345B00",
"y. c #3C5A00",
"u. c #2A6300",
"i. c #296900",
"p. c #336300",
"a. c #3C6500",
"s. c #336A00",
"d. c #3C6A00",
"f. c #2B7500",
"g. c #377600",
"h. c #1F6A00",
"j. c #484606",
"k. c #584708",
"l. c #465602",
"z. c #565508",
"x. c #55421A",
"c. c #584717",
"v. c #5A5717",
"b. c #4D4D17",
"n. c #664707",
"m. c #7A4702",
"M. c #644617",
"N. c #635817",
"B. c #71520A",
"V. c #436701",
"C. c #566606",
"Z. c #457602",
"A. c #547603",
"S. c #5D6417",
"D. c #5E731C",
"F. c #627C0A",
"G. c #636618",
"H. c #667618",
"J. c #65670C",
"K. c #5B4526",
"L. c #5B4836",
"P. c #5D5737",
"I. c #595822",
"U. c #654727",
"Y. c #744827",
"T. c #665727",
"R. c #735A2C",
"E. c #654935",
"W. c #784936",
"Q. c #645739",
"!. c #765935",
"~. c #5B7329",
"^. c #676623",
"/. c #687425",
"(. c #696837",
"). c #786435",
"_. c #757536",
"`. c #71722A",
"'. c #785945",
"]. c #6B5142",
"[. c #7D7745",
"{. c #766745",
"}. c #5E4343",
"|. c #853701",
" X c #892F0F",
".X c #823E22",
"XX c #894803",
"oX c #8D4B09",
"OX c #86593B",
"+X c #934E2A",
"@X c #85673C",
"#X c #837228",
"$X c #945A57",
"%X c #8B584A",
"&X c #886846",
"*X c #887B49",
"=X c #8B7252",
"-X c #967556",
";X c #8F6951",
":X c #AB6A65",
">X c #CD7978",
",X c #298800",
"<X c #388800",
"1X c #399700",
"2X c #2A9800",
"3X c #39A600",
"4X c #39B800",
"5X c #2BAD00",
"6X c #4C8C00",
"7X c #468801",
"8X c #578905",
"9X c #479A01",
"0X c #579909",
"qX c #5A9018",
"wX c #698614",
"eX c #728A18",
"rX c #759A18",
"tX c #63900A",
"yX c #47A800",
"uX c #55A902",
"iX c #44B400",
"pX c #49B900",
"aX c #53B802",
"sX c #59A812",
"dX c #7BA518",
"fX c #69AE15",
"gX c #768439",
"hX c #70892C",
"jX c #699826",
"kX c #3AC600",
"lX c #38D900",
"zX c #3BF700",
"xX c #3BE800",
"cX c #48C800",
"vX c #55C601",
"bX c #49D900",
"nX c #59D900",
"mX c #69D20B",
"MX c #48E700",
"NX c #43FE00",
"BX c #48F500",
"VX c #5BEC00",
"CX c #73F00C",
"ZX c #7ED523",
"AX c #7D8241",
"SX c #84983D",
"DX c #80B118",
"FX c #89F829",
"GX c #8FF633",
"HX c #88E92B",
"JX c #91864E",
"KX c #B08562",
"LX c #C8986D",
"PX c #D57F80",
/* pixels */
"    0 0   . . .   .   .   @ . @ o o . .   . 3 C C { | ;.7 5 n 5 V Z.6X0X9X7X<Xg.y., . . . .   . @ . @ . .   .       .   . .   O ",
"  . P G { { C C | -.-.-.-.| | | C @   # . l v { E.:.L.,.:.Z.a.qXpXiXyX0XsXyXiX0X7XG 7 @ b r = C | | | -.C 3 4 5 O 5 { 6 7 .   . ",
". }.-.{ ;.:.K.].'.L.].P.].P.P.].P.v k v C Q.L.K.;.,.,.,.].qXqXaXsXcXqXT.c.6XaX9X{ -.-.7 v r.{ E.E.Q.L.8 4 < { K.L.L.L.}.| }..   ",
"0 $X}.+ + | -.K. .! ' Y.].=X| k | v 6 9 C L.] { { >.} ;.<.<.(.aXvXsX;.} G G A G -.%X:.l.r.B {  .{ | W.4 , 1 ! ! ;.| -.O 7 8 L.. ",
"> W.:.# , v X.| o.c x ' N B x x x x j g c v B { *.,.;.;.} / v.vXvX,.} P G G $X$X$X$X-.Z.d.v ! ! { U.| 8 , 4 v ! ! { v # - 0 -.- ",
"> }.:.4 5 ;.| X.c.x x ' j.x N x B B ) ' B B | U.!.-X,.E.} /  .aXaXM.] P } $X$X$X$X$X-.V.Z.! C v !.W.! v 4 z ! } { { ;.3 6  .-.@ ",
"1 $XW.} L.=X&XX.X.N x R.&XR.N j.j.) V R.!.x.&X-X-X%XK.,.} / k.0X6X/ G G $X:XPX:X:X$X-.;.;...!  .U.] U.B c.q.] { ! ..E.L.o.! }.@ ",
"> }.OX].P.P.Q.' ' j.V b.JXT.N.b.T.j.b.T.| b.=X=X-XE.U.;.} / c.yXv./ G P %X>XPX>X'.$X>...K.@.$.R.x.Y.T.j.0.V.K.o.! ,.K.;.,.o.L.= ",
"> ;.M.L.P.Q.R.b.j.V q.v./.N.G.JX(.j.T.b.j.j.{.*X=XU...o.( E / 9X7X/ K <.<.$X'.W.W.<.,...X.Y.+X+X X( ] n.k.l.o. . .o.x.;.K.o...- ",
"> } ] L.P.!.R.I.j.V l.g.7XS.G.*XJXG.S.b.c.T.-X=X=XK.o.] ~ ~ / 6XA./ @.@.>.W.<.<.>.$XW.E.*.<..X|.|.z E n.$.o. .c.,.o. . .-.] ] 3 ",
", O.$.] {.[.P.I.q.Z.uXNX4XG.G.^.^.v.b._.*XJX-X-X=X] ^ ! ( +.#.A.N.( G / / <.&.=..X&X-X+XoXY.Y.=.( 4 +.$.j.D c.G.*.U.o. .Q +.#.6 ",
"8 +.^ K.P.(.y.I.j.d.uXzXNX0.G.^.H.JXv.j.b.*X*XLXKXT.x.] &.#.$.B.%.@.( / } W.Y.<.+X&X*X%.oXM.%.|.~ 8 [ c.V 9 c.*.E.;.;.;.X.^ #.z ",
"8 ] +.] {.[.b.I.j.9XMXNXNXyX7Xl.~.JXC.l.z.(.JXLXLX[.'.W.<.<.$.m..X.XOX@.=.;X;XLX:XJX`.z.v.*.|.|.#.[ $.' 0.j.T.,.E.U.W.E.] +.] 6 ",
"7 ..%.[ {.JX~.(.0.aXVXBXBXnXyXl.z.D.~.S.v.JX*XJX&X!.'.} #.@.@.M.*.Y.<.=.,.%X+X-X-X*X#XB.N.$.%.%.[ k.c uXS.).E.x.!.Q.OXE.] |.[ k ",
"7 @.|.$.I.[.qXb.0.aXaXBXBXMXy.y.l.D.G.G.^.hX[.[.!.!.,.@.#.#.M.Y.!.OXY.R.$X!.!.).SX_.XXoXn.$.n.k.k.` mXnXT.OX%XW.W.'.{.E.[ |.$.v ",
"6 $.|.n.(.[.hXl.l.uXfXBXBXnXV.y.y.S.G.J.v.v.`.Q.U.T.OX!.OX@X&X&X@X&XOXY.Y.N.R._._.SXXXXXz.c.c.k.z.C.C.F.OX&X%X&XE.].).U.*.|.$.c ",
"4 $.P.Q.(.JXhX~.C.sXhXcXbXfXwXy.l.C.J.S.J.N.U.OXOX!.!.K.!.@X!.@X@X*.OX] @X@X@XT.LX`.J.S.k.k.k.k.l.m.XXS.Y.U.*.OXW.E.U.,.K.T.$.c ",
"3 *.P.Q.*X[._.~.~.qXgXcXcXfXD.V.y.S.S.N.N.K.K.@XOXT.X.l 6 Q z l 9 ! ] / @X@X@X@X`.n.%.6X8XV.j.z.z.m.XXz.X.,.*.W.W.W.U.U.Q.P.$.g ",
"3 ;.].P.gXJX_.G.H.qXgXuXvXsXD.D.S.J._.T.R.K.K.W ! 9 6 g 6 6 g g g x c Q g R.@XT.@X@X).XXA.l.k.k.k.[ C.8. .*.M.W.W.U.X.M.Q.Q.] : ",
"7 U.U.(.gXSX(.N.J.0X~.aXvXsXS.G.S.c.X.X.!.X.6 z R 3 5 g x - @ o @ @ : g 5 x j c.OXSX@XE.B.k.j.n.c.[ 0.8.Q *.,.&.*.,.U.R.M.M.M.g ",
"3 ;.o.{.JXSXAXH.F.0XwXsXvX~.J.G.c.;.X.M. .! 5 3 5 5 5 @ o o o o o o o o $ : 5 x 6 ] o.*.Q.N.g k.N.W R %.%.+.*.*.&.*.U.M.M.[ ] 5 ",
"4 =.oX=XJXjXgX_.hXtXJ.H.JX~.G.v.x.X. . .R 5 5 5 5 = @ = @ = $ $ o $ $ o o o o f l ) ] M.@X@XK.[ n.B.k.n.$.@.&.$.$.( *.M.M.XX|.6 ",
"G =.M.;X{.gXgXJXSX8XN.G._.~.~.K.x.X.v 5 5 6 g - = @ = = $ ; ; ; r t ; & & $ $ $ j g ' c.T.R.R.[ XXXXB.n.$.*.( ] ( *.@.] !.m.%.~ ",
"8 o.U.Q./._.hX[ J.0XD.S.I.S.c.K.U.x.3 5 5 6 = @ = = ; ; ; ; t t t t h u t ; $ $ o ; j j ' *.R.T./.J.z.[ +.+.( $.@.o.L ( L.U. .l ",
"< ,.E.).`.`.J._ z.tX^.v.v.v.o.x.R.c 5 6 5 @ = $ = ; r 9.b b 8.d.V.t.8.6.h u u & & o $ j j M.R.R.T.v.G.c.$.] n.%.( L J ( W.U.o.7 ",
", :.,.'.G.J.k.Q F.8XN.N.M.M.x.R.T.3 5 6 = = = ; t f 6.y.y.a.V.V.a.V.a.a.a.6.h u & $ $ $ x M.R.U.T.x ] N.N.n.=.m.~ ~ ~ M.W.&.,.- ",
"> :.:.K.[ N.$.%.J.8Xn.c.c.x.T.).5 5 g - o = n 9.q.r.a.V.a.V.d.d.r.p.a.d.d.d.a.6.u r $ $ j j g R.R.W ) M.M.M.%.#.|.I ^ ( } &.,.# ",
"> <.,.} ~ ^ $.+.[ T.M.*.o.x.U.j.3 3 5 o o t 9.V.Z.V.8.a y a a a p b b m b r.d.r.u a & & $ j g I.).| ' v.n.M.M.%. XI @.J / >.,., ",
"> >.Y >.>.@.} [ ^ $.*.*.x.U.N.g 5 5 o o = f b M t.y y a a d d m 5.m 5.d 5.5.d.a.a h y & & f j K.).x.' n.M.M.$.~ &.&.&.>.>.&.>.3 ",
"+ Y Y >.>.&.&.G 8 #.#.W.U.^.G.6 5 - o o ; u 6.b n y y m 8.e.p.5.7.g.d 5.p.d.Z.p.a.m b r & & j j.`.T.B k.N.n.+.A } *.@.&.>.&.>., ",
"+ Y Y G P >.>.P S I @.X.c.`.H.l g - o $ t 6.9.b b m 5.8.t.a.d.p.w.Z.d 5.7.d.g.V.Z.t.b u & & u N T.c.x ) c.[ +.D G } &.L S &.&.> ",
"+ P Y H K &.Y Y K } } ..U.`.j.l 6 = o $ h b h b m 5.d 7.t.u.e.3.p 7.w.w.7.7.w.p.s.d.5.y q q ; j ^.T.c j.k.] @.U G } &.L J Y P , ",
"+ Y Y Y Y H Y U Y Y o.o.K.H.B 9 5 = $ $ u h a a p d 7.7.2.1.3.3.p s s 2.2.3.3.u.t.s.8.y r q r j T.(.' j.n.*.*.&.&.L H &.T &.K > ",
"O >.Y Y K H K H Y Y o.o.v.D.c l 5 = $ $ t h a q y d 3.3.3.s s s p i i s 3.2.d w.g.d.d 3.y & h h ^.T.' [ *.@.@.*.( F S K T Y } + ",
"O P Y Y Y H H S H Y } X.G.H.` R g o $ $ $ y q y p d s 3.s p i w w q % % % w d w.s.s.3.w.y q u j T.I.) $.@.@.@.^ ~ A S U &.Y Y + ",
"> Z Z Z Z U K S H L  .x.H.H.b.l g $ $ $ & r y y p p w s i e % X * X X * e p w.w.w.7.d s q r n q.^.j.c ^ L O.O.L / F K S S S Z > ",
"+ 2 Z Z Z H U S H &.G X.G.wXj.g g ; $ $ & y y d w w w e X X X w X X X % i w.u.3.3.s i 3.e.b b C.^.b.c ^ D S @.( _ L S S S Z Z + ",
"O P Y K H H U U J < 8 X.N.wXc.f g ; $ & & y y p p w q % X X X % % % e % w 4.i.3.1.p p u.f.M M C.^.j.c $.z 8 A ( @.L L H L Y P O ",
". }.>.Y K L F @.( } Q x.I.wXS.5 g g $ ; & y m p p s i w w w g.w.p q w w s w.e.3.d s d 7.b M n C.^.j.W +.z _ ! F / F J L P >.:.O ",
"+ :.Y Y U L K =.M.D W X.T.tXH.g t j ; $ & p w.e.7.u.2.u.s.<X<Xw.e.3X<X<Xg.f.e.2.1.s d p 6.M n C.^.` $.#.4 4 8 } K J K Y &.P :.+ ",
"O 2 Y U L S E ( *.z l x.c.wXwX6 j 5 t ; y y 2.7.w.w.s.s.<XyX9X6X9X<Xf.g.1X1Xi.2.u.s 3.a 9.M 0.H.G.) |.|.E 6 8 *.F E F J U Y G O ",
"> }.T K S / z W ] W B ] X.H.wX6 j j f t y & q 3.u.s.i.s.9XuXyXaXyXyXyX3X1X1X2.2.u.3.1.a 9.M S.wXV Q XX|.^ c 6 0 + 4 J H K T }.+ ",
"1 >.U / / ( c z W _ 0.z.X.x.wXA.5 g f f y 7.y y y 6XuX1XyX1XyX4XpXvXcXbX1X2.1.3.3.d a m M n G.H.k.oXXX|.#.^ z 3 # 4 ( S L U &.1 ",
"1 Y T J Q ^ Q z c c l.0.' x.T.8XN j j f h w.f.i.9XuX9X1XmXCXiXiXvXVXCXVXbXe.1.3.1.e.5.M M G.eXz.$.oXx z |.+.# 4 , F S A A &.T 1 ",
"1 U ( D 4 W ^ Q l ` l.r.q.X.X.H.l.j N j 8.g.f.f.fXmX1XcXCXCXnXvXFXCXVXnXpXi.s d 7.u.8.M v.eXeXV h u f g 8 $ 2.# D E F A A L U 1 ",
"> U @.D 8 R Q k.[ _ k.l.q.` x.T.D.Z.r.N 9.s.g.1.cXvXFXFXFXFXVXbXCXVXcX1X<X,X1.a a 6.M G.dXrXN.b y & w.i.kXlXkXs.Q E A 2 A U U > ",
"> L ~ z 8 R _ j.j.c A.C.l.l ' x./.8XjX6X<XN h t y vXGXCXCX3X1X1X3X1X<X1X3Xf.a m 6.q.G.rXdX`.9.y 4.,X5X2XlXMX4X4XW E D 0 F L L > ",
"> I I 0 z Q Q j.j.c C.j._ c c X.v.tXHXZX7Xj j n b u.bXiX<X4Xf.i.2.7.1XiXcXyX9.9.0.G.rXdXeXq.t.d 2X5X2X5XkXkXiXN R R D 0 A I I > ",
"1 I U U D _ Q j.b.] x W ] X.c x ' S.dXdX9.k j N j cXbX1Xg.4X3Xg.<X<XyXiXcX<XM C.H.eXrXeX0.M kXbX1XzXl.f.& - r.z c 9 E A U I I > ",
"< I I O.O.~ c W V ' x V K.K._ g l ' eXrXdXeX0XC.j cXcXpX<XyXyXf.g.9X1XiXiXj.G.H.eXrXrX9.M <XkXkXzXzXxX,Xp B r.9 6 8 E I I I I 2 ",
"# H O.O.E W c c f f x X.K.c.c x l g x.^.jXrX0X0Xv.l.mXFXmXmXyXyXvX3X9X1Xz.wXdXeXeXeXC.b u.4XbXlXxXzX1X1Xs.c 9.6 R 0 D F I I S + ",
"+ 2 I F R 4 6 c = = g x.x.c W V B g 6 B v.eXtXtXv.yXmXGXFXGXFXZXmXvXC.eXdXDXDXrXwX0.f h p iXkXNXNXNXs.<Xy.c 6 5 z 6 4 A F I 2 + ",
"+ 2 O.R E ;.x - @ = g 6 ) B N : f g 6 6 j _ G.tXtX8XpXuXHXFXGXmXnXvXH.DXDXDXeXl.9.j a u b MXbXMXNXcX` 1Xu.c z 0 0 3 4 D D I 1 + ",
", < L F ;.;.;.3 = - = g n : 5 : h g g 5 5 j B l.J.n.g.z.uXHXCXpXvXN.N.F.F.0.n j b r.l.l.7.bXbX<Xl.Z.V ,Xb x c ^ z 9 0 D S I 2 , ",
"> > O.E ! ..W c - - ; = : : t x g g 5 3 3 5 g g j x x n j iXiXpXj n B j g t f f V 6XA.N 8.bXV.<Xt.V s ,Xy l g c _ D 8 0 F I > > ",
"O O O.O.z 6 x l = g : = - - g x 6 3 5 3 3 3 5 - j 5 5 5 g 9XiXt.j j 5 3 - 5 h N V 6Xr.f b k.<Xd.u.a w.3XN c c l z 8 4 D I I O O ",
"O O I E D c ' c ' K.K.; ; : j B g 5 g 7XyXh 6 l V 5 5 : g 5 g g 5 5 5 - 5 M r.V j t.w n i j.3X,Xp y b 3Xu.x g 9 z 9 D D F L + O ",
". 2 I O.E 0 v # B | N 5.= g ' c.c.b.B M A.6XuX6XZ.g g g g j j c 6 5 : ; e e.w.N y w i p w j.3X4.y y u n g g g z 8 0 0 F I I 2 . ",
". 1 z 3 3 - 9 x x k 9.8.: B x _ [ [ B j.k.C.aXuX3.h g 5 x c g 9 3 6 [ k.e i p w % h.kX4.7.7.2Xi.& j h M j g 6 l 9 D # , , 0 1 O ",
"O O 8 , # # z 3 g M <Xb 5 ) j N ) ` V ` [ z.uXA.1.f f 5 6 x c z 3 c $.$.& % & % kXlXzXNXBXe.V.k.N u j g.x 5 3 z R 0 @ # > 4 O + ",
"2 O O # # # - x g g.7Xj = g c W ` ` ` ) [ j.6X6Xn : 5 j l z R 6 0 [ n.$.r f j 4XlX5XkXNXBXl.k.n.` j h t.g x R R E 9 , , > + O < ",
"O O O < A @ O W ` M 9.= = = W z W ` ` ` ` ` 8X6XN : : b W R 9 0 ~ ~ #.Q ; 5 g.4XlX9X_ kXBXz.n.[ [ l.V x W W E [ k.D 0 J L O O + ",
", . . . . # @ . 4 3 4 @ o = c c l l c ) ` N Z.7Xr f : : c E ~ ~ ( ~ E R l 5 5 ,X3Xe.n uXMXA.uXx c 6XZ.W 7Xl.E B V p.8.+ < . > > ",
"O O # O # , . . . @ - o @ @ = g g g g t f N n y.r h : - 3 3 6 l 6 3 5 3 g z ^ r.1XN n MXzXbXbX3X1XiXiXcXMXMX3X1X3Xf.@ @ , O > 1 "
};
