/* XPM */
static char *_8097d72730b4268cedd4b104d6bc3d1dAzvCwvWNvnY7i9r[] = {
/* columns rows colors chars-per-pixel */
"64 64 254 2 ",
"   c #040100",
".  c #0A0100",
"X  c #060C00",
"o  c #140100",
"O  c #1B0100",
"+  c #1C0A00",
"@  c #160B00",
"#  c #071700",
"$  c #141600",
"%  c #1B1400",
"&  c #1B1B00",
"*  c #220400",
"=  c #230A00",
"-  c #2B0B00",
";  c #2C0702",
":  c #330B00",
">  c #3A0A01",
",  c #231500",
"<  c #2C1400",
"1  c #231B00",
"2  c #2B1C01",
"3  c #341400",
"4  c #331B00",
"5  c #3B1704",
"6  c #3B1A12",
"7  c #092900",
"8  c #192700",
"9  c #163700",
"0  c #0B3000",
"q  c #2B2300",
"w  c #232C00",
"e  c #282502",
"r  c #322202",
"t  c #3C2300",
"y  c #342B01",
"u  c #3B2B01",
"i  c #38280A",
"p  c #273700",
"a  c #333300",
"s  c #3B3602",
"d  c #3D2712",
"f  c #3D3216",
"g  c #450D01",
"h  c #421502",
"j  c #4C1400",
"k  c #421A00",
"l  c #4B1B00",
"z  c #4A1B0B",
"x  c #44180A",
"c  c #531502",
"v  c #531B01",
"b  c #5B1B02",
"n  c #58190A",
"m  c #4A1C13",
"M  c #591D13",
"N  c #651B01",
"B  c #651B0B",
"V  c #651807",
"C  c #651D15",
"Z  c #751800",
"A  c #422200",
"S  c #4B2300",
"D  c #442B00",
"F  c #4C2B00",
"G  c #4A280B",
"H  c #522301",
"J  c #5B2301",
"K  c #532C00",
"L  c #5C2C02",
"P  c #58270B",
"I  c #433301",
"U  c #4B3400",
"Y  c #493A05",
"T  c #533401",
"R  c #5B3403",
"E  c #533B00",
"W  c #5B3C02",
"Q  c #58370B",
"!  c #492417",
"~  c #522114",
"^  c #592619",
"/  c #463517",
"(  c #573617",
")  c #612C04",
"_  c #632C0A",
"`  c #652205",
"'  c #792604",
"]  c #623304",
"[  c #613B03",
"{  c #62330A",
"}  c #663A06",
"|  c #783500",
" . c #66231C",
".. c #652B1B",
"X. c #652816",
"o. c #623214",
"O. c #643819",
"+. c #712316",
"@. c #592B24",
"#. c #5A3627",
"$. c #5A3938",
"%. c #4A2F24",
"&. c #632B23",
"*. c #642D2A",
"=. c #682923",
"-. c #643323",
";. c #64332B",
":. c #6B332A",
">. c #653A27",
",. c #72332B",
"<. c #723026",
"1. c #653432",
"2. c #693633",
"3. c #663C39",
"4. c #763A34",
"5. c #712E26",
"6. c #154E00",
"7. c #284600",
"8. c #3B4501",
"9. c #285600",
"0. c #395A00",
"q. c #1A6D00",
"w. c #296600",
"e. c #386600",
"r. c #377600",
"t. c #287500",
"y. c #4B4B00",
"u. c #484606",
"i. c #5B4401",
"p. c #534B01",
"a. c #5B4C01",
"s. c #564407",
"d. c #4B5200",
"f. c #435A00",
"g. c #4B5B00",
"h. c #465304",
"j. c #525300",
"k. c #585802",
"l. c #594618",
"z. c #5A5818",
"x. c #4B5115",
"c. c #644606",
"v. c #764502",
"b. c #665406",
"n. c #624414",
"m. c #644916",
"M. c #635718",
"N. c #734F07",
"B. c #496601",
"V. c #566502",
"C. c #497702",
"Z. c #567602",
"A. c #5D6C19",
"S. c #646717",
"D. c #637313",
"F. c #584627",
"G. c #5A5826",
"H. c #5D4936",
"J. c #5D5737",
"K. c #644527",
"L. c #714B28",
"P. c #655627",
"I. c #72552B",
"U. c #664737",
"Y. c #76453A",
"T. c #615739",
"R. c #765836",
"E. c #5C6E2D",
"W. c #676824",
"Q. c #667927",
"!. c #746639",
"~. c #757836",
"^. c #6B6E31",
"/. c #643E40",
"(. c #634142",
"). c #674846",
"_. c #774746",
"`. c #625541",
"'. c #7B5647",
"]. c #764E51",
"[. c #7C7547",
"{. c #736A44",
"}. c #5E4243",
"|. c #8D1C00",
" X c #971A00",
".X c #873900",
"XX c #963800",
"oX c #8F2600",
"OX c #A33400",
"+X c #A31B00",
"@X c #864800",
"#X c #914800",
"$X c #834D39",
"%X c #88673A",
"&X c #864B47",
"*X c #895755",
"=X c #965958",
"-X c #8C554D",
";X c #886848",
":X c #88794B",
">X c #986858",
",X c #8B7353",
"<X c #987657",
"1X c #8B694D",
"2X c #A36D53",
"3X c #985D62",
"4X c #9B6263",
"5X c #A56567",
"6X c #B86D70",
"7X c #CB787C",
"8X c #298600",
"9X c #398B00",
"0X c #359800",
"qX c #289500",
"wX c #38A800",
"eX c #39B500",
"rX c #2AAC00",
"tX c #1F8D00",
"yX c #478801",
"uX c #578805",
"iX c #499601",
"pX c #579705",
"aX c #5B9015",
"sX c #68931A",
"dX c #48A901",
"fX c #55A808",
"gX c #49B500",
"hX c #52B701",
"jX c #5AA912",
"kX c #66A913",
"lX c #778638",
"zX c #6D8729",
"xX c #609325",
"cX c #3BC700",
"vX c #38D600",
"bX c #2ECF00",
"nX c #36E600",
"mX c #3AFB00",
"MX c #48CA00",
"NX c #47D600",
"BX c #53C400",
"VX c #48E700",
"CX c #46F900",
"ZX c #57E000",
"AX c #7C8842",
"SX c #87A839",
"DX c #8B9432",
"FX c #938A4D",
"GX c #A9855C",
"HX c #AA9E52",
"JX c #CE9271",
"KX c #DE7F84",
"LX c #DB8185",
"PX c #EB8A8E",
/* pixels */
"o   . .   . .     .       @ o @ .           , d i 6 6 4 o # 9 & 8.yXdXgXBXgXNXcXwX+ . & $ yX% o O * o O o O .   . o o   6 5     ",
".   . < 2 f ,   % f %./ f f f / d .   @   r 4 / }.H.}.%.d 9Xw.iXNXNXdXdXdXNXNXMXBX6 6 ! yX9XyX6 2.2.;.:.=.(.3.).).$.m ! m m .   ",
"  . }./ `.}.`.`.`.`.`.`.`.`.`.`.`.y q i i T.U.H.#.-.#.( H.aXfXMXMXNXiXG.l.iXNXgXd m 6 3 f 0XX.=.5.=.4.4.5. .M h > x z ! ! %.(.  ",
". }.2 4 $ F.%.H.( i Q I.T.:X/ i f i 2 2 f H.G G ( O.( @.-.-.G.MXNXfX#.@.5 h > 5 %.4X#.r.yXu. .=.=.:.4.4.M z z 5 5 h x o O $.$.O ",
"+ %.q , , / F.l.( y y Y s a y r y y q q u i i G ( o.#.>.( S h.NXNX-.^ M h 5 =X5X5X5X*.iX9X%.m @.,.7X4.:.m m m x > x : o O $.@.* ",
"$ %.P q e #./ l.l.y y Y s.y a y u s I Y s a / K.R.<X#.L.~ G F MXMXn.Q ~ ~ 5X5X5X5X5X@.C.yXm m m LXLX:.-.^ ~ m z x z &.O O ).$.O ",
"$ H.F Q J.,X,X/ l.a a P.[.R.a u.u.s Y P.R.l.[.<X>X'.F.F.( P u.dXiX~ z z 4X6XLX6X5X5X@.! $.@.m $.=X,.,.>.x.B...m m x h #.$.$.$.* ",
"% H.Q H.`.J.!.Y Y u.s l.FXP.M.u.P.u.x.P./ l.,X;X<XH.F.#.o.P l.gXV.S z ~ *XLXPX6X].*X@.%.@.@.@.}.2.,.,.D.C.yX_.:.^ m ! x *.1.$.* ",
"% ( Q `.T.T.I.l.u.s 8.l.Q.M.S.:X^.y.G.u.u.l.{.,X,Xl.( F.G l G dXiX~ z 4.,.=X&X3.4.4.;.@.@./.6X6X4.$X4.aXC.V.:.:.:.z z h z ;.@.= ",
"% T U J.T.R.^.z.h.s e.r.yXD.z.FXFXz.z.z.l.P.:X,X<XF.l./ S G G gXiX^ ^ ~ ^ :.:.,.,.&X&X}./.*X5X&X5.,.:.uXB.5.=.:...z h x x @.@.- ",
"2 | ] Q {.FXG.E.8.B.dXCXeXS.S.W.W.S.x.~.:XGX:XGX<XY G D F G o.gXA.P v ~ ~ ,.5.5.$X&X=X=X3X3X3X5.=.n ^ A.B.^ =.4.=...5 x x ! > * ",
"t | K H.{.E.x.G.x.e.hXCXCXf.S.W.W.FXk.x.h.[.:XJXGXP.s.( K.G x.jXM.^ P z ^ &X:.5.&X&X5X3X6X6X4.5.=.M ;.uXyXm 5.,._.&.m x h z m ; ",
"2 Q ] E {.[.x.z.h.pXZXCXCXdXyXf.Q.FXV.h.h.^.FXJXJX[.`.R.R.>.M.pX>X].5XO.,.3X5X7X=X5X3X5X7X4X,.5.&X7X~.aXC.~ &X1.2.2.&...~ ~ ! ; ",
"e Q .XR {.FXE.^.8.hXCXCXCXVXdXf.g.Q.E.x.z.[.FXFX{.!.T.O.O.m.jXfX'.*X-X,.,.5X&X7X&X=X=X6X6X3X&X&X7X&XsXaX;X3X].$._._.].1.;.&.$.; ",
"i } XXE G.lXxXx.h.hXhXCXCXVX0.f.h.A.S.S.W.zX~.:X!.I.P.O.O.O.fXfX*X>X3.Y.$X=X$X&X$X=X/./.3X*X].].3.3.I.zX].5X5X3X*X*X].2.;.*.$.+ ",
"u ] .XW T.AXxXf.8.fXkXCXCXZXf.f.0.V.S.D.M.M.lX[.!.!.I.K.F.J.pXaX'.K.#.:.4.=X,.4.,.,.=.2././.}./.1.1.sXsX6X6X6X6X].]._.2.:.@.}.+ ",
"t } J.T.[.FXxXE.x.fXsXBXVXkXQ.e.0.V.V.S.S.M.~.JX{.{.P.L.L.`.3.#.Y.#.#.>.]./.1./.(.1.*.1.M /.3./.@.*.jXaX&X/.4.6X*X/./.2.5.3.$.O ",
"2 } J.E.AX:X~.E.E.aXlXBXNXkXQ.B.f.A.D.S.S.M.D.JX,X{.I.L.L.R.R.G.U.3.#.*X_./.*.@.).3.@.C ! @.*.@.! m hXfX$.1.2.&X*X].3.1.*.)./.O ",
"1 Q T.T.AXAX~.W.D.xXlXfXBXjXQ.D.A.D.DXlX~.S.%XJXFX1XL.I.L.K.^.E.Y.1X=X*X4.(.$.@.$.@.m =.M m =.3.m 6 hXhX@.1.*.3X*X2.1.2.1.).(.; ",
"1 m.m.!.FXSX^.M.Z.pXQ.hXBXjXA.D.V.S.FXFXS.S.N.HX<XI.I.L.( >.zXaXY.4X4X=X4.3.1.$.$.m m m m m m $.! ! fXjX@.1.1.*.*.1.1./.)./.(.6 ",
"& Q Q [.AXSXAXS.sXpXD.kXMXzXA.S.D.D.FXzXS.S.I.JXJXT.P.K.( K.Q.xXY.-X>X;.*.1.@.M 1.@.z x @.m m *.uX! ( m %.*.*.*.*.2.1.3.).3./.; ",
"q .Xv.GXSXSXlX~.zXpXD.D.AXQ.S.S.S.lXFX~.M.W.%XJXJXG.P.F.#.R.).'._.2.@.^ @.1.@.^ 1.1.x m M @.1.1.aXiXC.x.$.*.:.n c M 2.1.2./.}.; ",
"H .Xm.<X[.lXlXFXDXaXS.S.~.E.E.lXlXzX~.~.G.!.%XJXJXJ.J.`.F.*X*X'.U.;.^ ! /.1.^ 1.2./.*.M 1./././.A.J.C.C.c ..@.n n *.*.;.2.3.(.6 ",
"i G H.^.zX~.lXE D.pXA.z.z.E.z.Q.DXQ.z.P.E.~.<XHX;XT.K.L.K.U.>X'.}.U.;.=X*X&X@.2.3.*X4X3X_.2.*.3X4X}.C.( b c c N *.1.c ^ *.=.2.; ",
"q ( J.[.zXzXb.Y k.aXQ.M.z.M.b.z.z.S.m.m.Y x.{.R.JXJXT.K.K.3.>X-XU.(.PX5X=X$XM m M KXKX7X=.*.1.*X*X/./.2...P |. Xc c c v ..+.2.; ",
"1 T.J.;XQ.zXc.E uXuXz.M.z.b.M.m.s.c.l.m.a y J.U.JXLX1XY.K.;.;.#.1.4.PXPX&Xl z m M 6XKX=X*.2.*.2.1.1.*.=.|.+.|. Xg c j n &. .2.* ",
"& K.`.J.E S.| ] Z.pXb.m.m.m.P.z.m.l.m.m.Y y G.T.JXLX,X'.>.#.;.#.#.^ PXPX&.@.&.^ @.@.*.*.1.:.*.*.&.@.&.^ M P  X|.+Xb j M z  .1.O ",
"1 U.J.K.F T c.U s.J.M.m.m.b.m.G.M.m.c.n.Q q L.`.e e >X'.U.-.>.>.3.3.U.&.&X&X2.1./.2.1.*.3.*.*.1.2.*.*.&.B M  .|.+XZ M n c =.:.O ",
"2 U.U.m.Q | R T Q m.m.N.m.m.m.m.m.l.n.n.Q % l.<X$ X U.T.>.;.>.;.3.;.^ PX7X-X4.&X=X_.1.1.2./.1.;.*.*. . . .C V c  . . .&.=.C =.* ",
"2 F.K.O.Q | } $ # s u.<XY s I s.l.D E O.G $ & K.;X2 Y.>.>.#.;.;.-.-.^ PXLX;.2.3X5X4.#.;.1.=.=.*.*. .M M *.|.|.n *.=. . .=.C C O ",
"G ( S K ) | 1 X X $ 7.q.q y y U U u D K ( u $ 2 #.K.U.Y.&X;.-.;.>.&...&.-.=.&X-X&X@.&.;.;.*.*.&.&.n Z B  .C Z c M =.=.M z C C o ",
"G ( S | XX| q X q.a nXmXr.e e I U U D F O.O.o.( Q #., 2 1X2X-.#.>.-.X.X.X...X.+.X.X. .C X. .M ^ ..b +X X*.M C M C  . .n c C M O ",
"f P H ) XXK $ %XNXB.mXmXe.8 e U D U O.T R n.O.( #.#.@ d '.&X2.-.:.-.^ O.....X...;.-.X.n ` ^ h h  . .' @.=. . .C C C n C C C C o ",
"f Q K ) | X X g.NXMXmXmXgX& $ X D U U F F O.O.#.i i r ).O.>.>.:.-.=...X.X.-.......O.-.v v l g c B +.C =. .C C C c n g n C C C o ",
"i H.K | XXq.rXg.uXnXmXNXwX$ e X 2 U A R O.K.K.( f r G >.K.-.O.X.X.o.X.P _ X._ _ o.X.P k l > l B B B X. .C C n c c c c C C C M o ",
"i T | .X@X9.wX8XZ.n.Z.NXt.# & $ $ D S T O.L.R.>X( G o.o.X.o.O.+.o.X.o.l P X.P P ^ v H l b W _ ) ' B c g j B n c g V V g j g > * ",
"i Q $XL.T .XdXwXpXE y.MXB.n.O.W u i S K K.I.>X$X( { o.X.O.X._ _ X.o.P A P P S S H P H _ _ W i.W R B c g > : C c c V c g g g > O ",
"/ P.;XN.K .Xy.FXHXU p.iXg.s.n.uXQ s y F.'.;XR.L.O.X.c.O.O.o._ _ { _ S S K H S H S H _ _ _ i.p.p.W J c ` ; * ; v C V c g n C M o ",
"f & @ D m.T a.SXHXN.%XkXU Q D.dXs.u / ;X<X'.K.o.o.o.hXBX{ _ _ _ { K S S F S S { S P L L R p.a.i.W J v ` > > ^ c n c c V C 1.$.o ",
"q & e O.!.%XE SXsXc.2XGXU W W uXQ I Y <X<X{ _ _ Q K hXhXZ.o.{ L F S t F U U T R p.Q Q R E a.k.| c.v ` |.; ; > ..B n c V C C $.o ",
"y ;X$Xs a a l.m.m.c.E s D T T c.s.D Q Q } L.I.$X{ K Q i.V.K R K t < 4 D Y d.d.y.j.p.i.T E j.k.@XOX` OXoXl - - -.n g c n V C g o ",
"w H.l.i Y Q n.l.l.n.y.y.E Y E l.I.1X;XL.1X2X<X2X$XK K yXyXF 0.7.1 2 t r U d.g.V.k.V.j.i.T i.k.b.OXXXOXoXl 3 = 5 O O c c n B }.* ",
"e l.l.G.P.s.i.T i.a.uXiXV.U a.b.n.%X;XR.;X<X2X<XK.F F C.yX0.r.7.& t q 2 I y.g.V.V.V.k.k.T } k.] oXXXXXoX' H 3 = = O b j c B C ; ",
"i J.R.P.Q T E U E a.Z.pXpXi.i.[ [ { T R R { { { n.F K R B.r.8X9.q D T s u.y.j.V.V.Z.j.V.W | | K | XX2 2 oX` + + * l j h g B C ; ",
"y !.:Xf $ I T E U i.Z.pXpXV.{ R [ R F i.W T { o.Q { { F g.0X9X8 y I T Y d.g.g.k.k.Z.p.V.U XX#X} $ $ $ & , X 6.. k c h h h b V ; ",
"y ;X1Xe $ u E p.} W k.uXpXZ.i.NXgXR K i.p.{ ] } Q R { T d.9X8Xe e D I Y g.B.B.V.a.s.N.N.c.#X#X# # X 6.q.vXVXNXr.S S h h h V V * ",
"i G.R.& & I i.h.f.y gXdXuX[ V.VXMXR W a.a.i.{ { R L T F g.wX0.e I e 8 w 0.B.C.V.k.a.N.@XE a w # 6.tXrXtXnXnXcXcXA A h 5 l c c * ",
"q H.J.$ y W E f.0.y iXe.D W } k.[ { ] a.a.a.] { { T F T B.dXY I c.e & w 7.B.Z.C.p.a.N.p.8 w 7.8 qXrX9XrXbXvXgXs A A k h h N N * ",
"e F.J./ 4 p.] h.0.s # & q R c.k.c.T K i.a.a.{ { { { [ T g.iXu.U c.Y I w 8 uXk.k.p.a.a.p p 9 cXvXqXmX8.8X# % 0.t t r l k B N N ; ",
"q F.O.[ F p.W U 0.8 X 6.U { b.V.k.c.T [ c.{ ] ) ) { ] { g.yXi.[ W Y y e a V.N.@X@Xy.y.0 9 eXMXMXmXmXnX8X8 u 9.4 2 4 l ` N N N - ",
"1 ( } XX| u.a e $ q.6.9 R [ k.V.k.k.[ } c.) L ] ] L R { V.yXB.W W E a 8.a.Z.Z.N.b.y.7.7 rXeXcXvXnXmX0X0Xr.u 7.2 t 4 l l N N g O ",
"@ G { v.{ y a r.eXrX& 4 K ] c.V.k.a.[ ] ) ) ) L ) ) ] ] yXiXY T Y Y y.j.y.Z.Z.g.C.d.7 0 0 eXcXCXCXCXe.9Xf.u 2 1 A < < h l N > O ",
"% P o.[ [ T y gXcXqX2 r R ] { j.a.i.[ [ { o.H J L _ ) ] T u.U E p.p.y.j.g.y.Z.B.iXuX9 9 9.CXvXCXCXvXu.0Xw.u y 5 4 , , k k N ; O ",
", Q o.[ p.Y ] k.eXe.X < 4 a.j.b.c.c.[ i.a.L J J _ { ) { { j.y.p.g.g.y.d.d.8.8.8.yXiXV.k.dXCXNX9Xh.C.s 8X9 y t T A 4 k k l b ; ; ",
"+ o.X.{ p.Y ) p.wXq.. X _ i.j.p.a.i.] [ i.{ J ) ) _ ) ) R j.j.y.f.B.y.s 8.7.p p C.iXZ.y.gXVXB.9X0.s 9 8X8 y q t F t 3 5 l N * * ",
", o._ Q p.u.J L u.7 X . J _ j.j.k.W ) L a.L J J J P _ ) { E g.y.h.B.8.8 7.9.p 8.B.iX0.7 p p.9Xe.w.8 9.rXs t u 4 5 4 2 5 N N o o ",
"2 ^ _ X.Y u.J H @ #   < 5 l p.i.W ' J J L v v H v H _ J ) F y.E u.0.p # 6.9.9.s y.9.0 0 0 y.0X8X0 7 p wXw.y q 4 t 4 A 5 l N o o ",
"< ^ H _ ` 3 H 4 7.r.1 < 3 5 ` ` H ' b ` ` b k v l H ` L S S S U t e 8 # # 7.9.a 7 7 7 7 0 s rX9.8 8 w p q q q t 4 5 5 l N N > . ",
"< 3 = 5   .   tXnX0X3 < - J W P l S l J ` ` v l l J H l S L K k F i.W W # 7 0 7 # q.bXq.7.9.0Xt.7 w w p q q 2 r 4 5 + = = 5 ; . ",
"= h : - + . 0 mXmXeX- = h E iXh Y l h B B ` B h b N v H l v 5 D A E | R # # # # bXnXnXmXmX9.e.p.a e w r.y q , t A 5 @ + = < o o ",
"O x P : = 0XbXnXmX8.: b c iXgXC.c g g B V V ; ; l N ` ` v l 4 t S W c.] 7 e e eXnXeXvXmXCXy.i.[ U w e 0.e r t A A 3 + = = O o : ",
". - |.H O nXnXvXnXt v c c j MXb N c b N V V * * N N > 5 h - 3 l H ) ' F & & t.bXnXwXY MXCXV.c.W E d.8.y F D F E a.k 3 b N . . < ",
"* ;  XZ ; nXnXyXV.b g > b B V n n n c n B V c ; : > : ; 3 l J ` ` J K S t % 1 9XeX0.a hXVXuXdXy a yXB.u iXg.S s 8.r.9.= 3 . o - ",
"; O |.3 < nXnX9Xr - : : 3 - 3 : x 3 3 - 3 - < - - - - - 3 < 2 r 4 % , 1 e t ] e.wXa a VXmXNXNXdXwXgXgXNXVXVXeX0XeXr.@ + 2 + = - "
};
