/* XPM */
static char *_0d9d6254731401db419b80e97d2a1673YVoyHWBi63FtX9k[] = {
/* columns rows colors chars-per-pixel */
"64 64 247 2 ",
"   c #280000",
".  c #370000",
"X  c #430100",
"o  c #4C0201",
"O  c #4C0C00",
"+  c #440C00",
"@  c #540300",
"#  c #5B0200",
"$  c #550C01",
"%  c #5A0D00",
"&  c #5C1101",
"*  c #630301",
"=  c #6D0301",
"-  c #640C00",
";  c #6C0C00",
":  c #730401",
">  c #7C0501",
",  c #740C00",
"<  c #7B0C01",
"1  c #631300",
"2  c #6B1200",
"3  c #6B1903",
"4  c #741400",
"5  c #7D1301",
"6  c #7C1900",
"7  c #741B00",
"8  c #830402",
"9  c #8B0501",
"0  c #830B01",
"q  c #8B0B01",
"w  c #950502",
"e  c #9B0401",
"r  c #930C01",
"t  c #9C0B01",
"y  c #9B0808",
"u  c #831401",
"i  c #8C1402",
"p  c #841A02",
"a  c #8B1A02",
"s  c #8A180B",
"d  c #941301",
"f  c #9C1401",
"g  c #941C02",
"h  c #9C1C02",
"j  c #971B0A",
"k  c #A20603",
"l  c #A30B02",
"z  c #AB0C03",
"x  c #AB0808",
"c  c #BC0504",
"v  c #B40C03",
"b  c #BC0C04",
"n  c #B4060B",
"m  c #BC0709",
"M  c #B40B09",
"N  c #BC0B0A",
"B  c #B40504",
"V  c #A31401",
"C  c #AC1401",
"Z  c #A51A03",
"A  c #AC1B01",
"S  c #AA170A",
"D  c #B31301",
"F  c #BC1204",
"G  c #B31B01",
"H  c #BC1B02",
"J  c #B41209",
"K  c #BC1409",
"L  c #BD1A0B",
"P  c #B51C09",
"I  c #B91212",
"U  c #8A2302",
"Y  c #872000",
"T  c #952302",
"R  c #9D2402",
"E  c #992803",
"W  c #A32302",
"Q  c #AC2202",
"!  c #A32C02",
"~  c #AA2A02",
"^  c #AA260B",
"/  c #B42302",
"(  c #BC2302",
")  c #B42A01",
"_  c #BC2C03",
"`  c #BC220B",
"'  c #B8280C",
"]  c #A53202",
"[  c #AB3306",
"{  c #BA3606",
"}  c #BB2911",
"|  c #C20605",
" . c #C20C05",
".. c #CB0C05",
"X. c #C40B0A",
"o. c #CC0C0B",
"O. c #C60609",
"+. c #D30C05",
"@. c #DA0B06",
"#. c #D40C0B",
"$. c #DC0C0B",
"%. c #D70609",
"&. c #C31204",
"*. c #CC1303",
"=. c #C31B01",
"-. c #CC1A00",
";. c #C4130A",
":. c #CC120A",
">. c #CB1A0C",
",. c #C11B09",
"<. c #D41303",
"1. c #DB1402",
"2. c #D21D00",
"3. c #DB1B00",
"4. c #D4130A",
"5. c #DC130A",
"6. c #D91C0F",
"7. c #CB0810",
"8. c #D30B11",
"9. c #D90A11",
"0. c #CB1A12",
"q. c #DA1411",
"w. c #E40B06",
"e. c #EC0A07",
"r. c #EC070C",
"t. c #E30C0A",
"y. c #ED0B0B",
"u. c #E60706",
"i. c #F20907",
"p. c #E31309",
"a. c #EE140A",
"s. c #ED190D",
"d. c #E81702",
"f. c #F41C00",
"g. c #FE1C00",
"h. c #F01309",
"j. c #F81700",
"k. c #E50C12",
"l. c #EB0C13",
"z. c #EA0813",
"x. c #EC1414",
"c. c #E61815",
"v. c #F21214",
"b. c #C52201",
"n. c #CB2302",
"m. c #C32C01",
"M. c #CC2B02",
"N. c #C32C0C",
"B. c #CA260C",
"V. c #D32301",
"C. c #DA2401",
"Z. c #D42C02",
"A. c #DB2D02",
"S. c #D62B0B",
"D. c #C43301",
"F. c #CD3301",
"G. c #CA360A",
"H. c #D33301",
"J. c #DB3302",
"K. c #DB3A01",
"L. c #D5370B",
"P. c #CA2613",
"I. c #D52818",
"U. c #D4341C",
"Y. c #E42500",
"T. c #EE2500",
"R. c #E52C01",
"E. c #EB2C01",
"W. c #F62400",
"Q. c #FE2500",
"!. c #F22D02",
"~. c #FE2C00",
"^. c #E43302",
"/. c #EB3302",
"(. c #E43A02",
"). c #EC3B02",
"_. c #E9390D",
"`. c #F33303",
"'. c #FE3400",
"]. c #F43A01",
"[. c #FE3B01",
"{. c #FC3D0C",
"}. c #EA2618",
"|. c #F12618",
" X c #E83517",
".X c #F1341C",
"XX c #DC3924",
"oX c #CF3623",
"OX c #E73925",
"+X c #F13B24",
"@X c #EB2C21",
"#X c #CB4307",
"$X c #DE430C",
"%X c #D84406",
"&X c #D14E10",
"*X c #E84606",
"=X c #F44403",
"-X c #FE4201",
";X c #F44A02",
":X c #FF4B01",
">X c #FD420E",
",X c #FF490A",
"<X c #F2470B",
"1X c #EC5306",
"2X c #FF5401",
"3X c #FF5C01",
"4X c #FE5C0B",
"5X c #F7540A",
"6X c #F85412",
"7X c #FF6301",
"8X c #FF6B01",
"9X c #FE640B",
"0X c #FF6B0C",
"qX c #FF7402",
"wX c #FF7B01",
"eX c #FF730D",
"rX c #FF7C0C",
"tX c #FF6814",
"yX c #FF7916",
"uX c #ED6312",
"iX c #DB4627",
"pX c #E94629",
"aX c #F3472A",
"sX c #F3522D",
"dX c #ED5A38",
"fX c #F25733",
"gX c #EB4D31",
"hX c #F76937",
"jX c #FF8401",
"kX c #FF8A00",
"lX c #FF830C",
"zX c #FF8A0C",
"xX c #FF9403",
"cX c #FF9C03",
"vX c #FF950C",
"bX c #FF9E0E",
"nX c #FF8914",
"mX c #FF941B",
"MX c #FF9617",
"NX c #FFA606",
"BX c #FFA618",
"VX c #FFB515",
"CX c #FF9621",
"ZX c #FF9736",
"AX c #FFA827",
"SX c #FFB522",
"DX c #FFC729",
/* pixels */
"b K b b b K  . . .b b b K F F b b  . . .b F F F F b b b c b b c c | c b b b c c b b c c b &.F :.b b b b ;.b &.b K F &. .b b F b ",
"v b b F b +.a.a.5.F b K b &.4...5.5. .>.b F K @.L b b | b b b @.w.u...b b c c c c c c c b c b F K K F F L b b b b K  .w.y...b b ",
"b b &.h.a.a.a.a.a.>.>.a.a.a.s.a.a.b M 5.#.= # * | b  .e.e.y.e.y.e.+.b b b c |  .b K c c c c y.w.b  .F b  .F L b b >.t.y.a.a. .c ",
"F K &.a.p.5.&.4.4.<.5.a.h.h.a.a.5.l < : 9 9 > 8 e X.e.i.m N e.e.$.X.c m c c ..y.@.4.s.e.a.e.pXiXF L b b n K b F b c t.}..Xa.y.b ",
"F b F p.p.5.5.5.p.p.<.*.p.p.p.a.5.= w w w w 9 8 M N i.e.m m c c m m  .b c c c b a.s.aX+Xi.s.U.P.b b b q q r ..<.b b c |.sX|.e.F ",
"b b +.p.<.4.&.=.-.p.5.F F &.s.a.p.z e e w e w 8 x m m N m c c N  .k w 9 e c c c ..@.hXhX}.U.F b b b d d f 3.j.f.d.K b  . Xi...b ",
"K b <...C =.n.V.C.2.g.j.&.F a.a.5.z 8 e e k 8 # o N N M x l B l e w t k <.+. .c b b  .e.U.iXb M V t D =.C.7X7XW.Y.G V b  . ...b ",
"b *.&.v A n.A.R.'.E.'.~.g.D &.p.9 w w o k k 8 * b z > l l l z z z z b b +.d.1.w r b t.4.b F b t C -.V.'.[.7XqXA.Z.`.W.V l b  .b ",
"b b b D G n.R.A.[.[.2X2X~.f.V a.p.8 >   * t : z z w l z v D F 1.1.F 1...<.+.v = l &.e.F b ..t F -.~.:X:X:X2X:XK.K.2X2XA f t u.b ",
"F b F V G n./.].-X-X8X7X-XQ.1.<.p.w w X.l $.b * : l v v F 3.f.g.W.g.g.d.l 9 k # 8 l y.&.F b D *.d.-X3X3X2XwX8X3X7X3X3X) h r m  .",
"F 5.q f =.E.].[.:X-XkXNXwX~.d.D &.l M b +...> = 0 C D =.T.Q.~.~.~.[.Q.Q.-.l l t l v t.b b 9 F 1.W.2XeX9XvXSXBXkXwX8X;X) h r l b ",
"b z r f C.-XkXkXwX3XxXNXNX:Xd.-.V t t %.l > * 0 z D 2.Q.Q.'.'.-XqXqX:X~.Q.1.z l q b ..F t t F 3.Y.2XrX3XwXSXSXqXqX3X;X) g i w b ",
"b F F d b.'.xXNXkXkXjXcXcX[.E.n.V f * %.$.o 8 z D H Q.~.'.-X2XwXwXwX-X'.'.g.v z : b  .M w r D 3.Y.'.-X:X7XBXlX7X2X=XF.) p , w ..",
"L F F *.W ) 8XvXjXjXjXxXjX-X'.=.Z f = y.t.* v C G n.~.'.qX8X2XkXkX2X7X7X2X'.v z = ;.;.t l q D H V.A.K.:X8XeX9X3X%XD._ Q 5 , e  .",
"F b F F h ~ D.8X:X3XjXMXCX[.'.G Z i : o.N 8 z C G ( '.[.eXlX7XkXkX3X2X3X4X[.D z 8 k 8 l l l 0 0 Z M.m.H.8X0XtXK.D._ W 4 ; ; w  .",
"b ..b b D R ) m.].:X2XmXCX'.E.C f , 0 t.$.: V G P N.'.[.4XeXMXbX7X8X7X:X-X!.F l v 8 = X ..$., * = =.M.m.K.:X,XD._ a 4 2 * @ e b ",
"b ..a.;.F V R R M./.).[.]./ A V d 0 < w.w.v , L ` ` A.F.-XtXCXAXeX7X-X-X[.~.G l q : X X #.$.l > * d n.m.m.].=XQ 6 4 2 - * @ k  .",
"K 4.a.l.b D g p p / / / Q Z V f f P.s.a.t.w.t.:.` h T W *X0XZXZX4X,X>X-X[.R.G l q 0 o x x = t w * = G b.( h g p 4 2 - * , @ z  .",
"b $.x.x.#.b z a 5 6 g Z h f V d 6.aX|.y.y.pXsX@.g h T ~ ,XtXZXZX6X,X{.{.[.B.G r q q #.$.#.$.# r * = : f , - - - % @ @ @ # : o.b ",
"F k.|.x.b b c.k.M l ; r r q S .X|.|.h.a.y.c. Xq 5 W g G.>X>XtXyX>X>X_.{.B.b.S 0 q t t.$.#.%.b : r = c > # # ; @ @ @ @ o 8 c.c.K ",
"b |.sXgXF >.aX+Xk.k.$.x l  .gXfXaXaX+X|.a.e.B < < Z h W S.{._.>X_._. X' B.` V < < l o.l #.K > : # : i.i.u.%. .w # * = s |.|.}.b ",
"K r.pXB.b r.}.o.#.$.N N v F D H P. X-.}. .p.B = , 5 Z g R '  X X_.S.^ j ` A u , < z l 0 0 w 8 * # x x.pX$... .| 8 9 u..XaXaX;.b ",
"b o. .b b #.l o.k l > t t C F &.&.*.d.d.<...9 : q , < h a h R h N.^ s s ` i u 0 r t &.t t v v 8 y y gXdX#.O.m  .o. .m 0.U.0.b b ",
"K b S l l l C C D b v z z b *.1.1.g.g.g.d.*.b * * = : ; ; u i d a p 6 u s p f G V -.-.=.&.&.w > k #.l.k.9.X.c c c m b c  .m b b ",
"b J w l C =.2.H H =.=.&.*.1.3.f.Q.Q.~.Q.g.d.*. .r # @ < , , , < 5 i u 0 z q G 2.V.C.C.V.2.-.C > z k.c.pXy.| c B : 0 w w l | F b ",
"F b t C =.C.Y.R.Y.Y.=.3.d.g.g.Q.Q.[.:X3X'.Q.3.=.b : X . . q J o.r.y.e.+.z Z n.S.A.J./.E.Y.T.G q l k.x.pXl.m c b V V f d r t K K ",
"b v V A V.R.^././.E.T.Q.Q.Q.~.~.'.2X3X8X3X'.Y.-.F v 8   . n #.t.#.,.F +.n.N.S.L.K.<X=X=X).^.Y.H z k.k.+.$.m M ..G G G V f , K F ",
"F q V =.V.[.lX].K.).].qXBX7X8X[.-XjXqX7X8X:X/.V.H D 9 9 8 n  .&. .b F =.B.L.L.$X<X5X5X5X=X).R.b.f o.o.b X.N v &.b.C.~.Q.G i : F ",
"b l -.V.A.-XMXMX7X3X-XlXAXnXlX3XwXkXjX8X8X-X'.A.=.l r q O.#.b  .b F L B.L.L.*X5X5XmXtX4X5X*X(.M.A F b N b B b n.!.'.[.8X'.C N F ",
"b 0 &.C.R.3XMXmX3X3X{.-XAXMXlX2XwXjXwX8X3X:X[.`.b.V r t v  .&.b F z ` N.G.$X1X5X0XmXmX9X4X<X*XZ.H &.L F b o.H ~.:X3X[.7X:X-.z 4.",
"b r i =.R.3X7X).*XH.^.H.J.(.=X:X2X8XwX8X7X2X[.^.V.G # @ v  .;.L b z N.G.L.5X5X4X0XnXMX0X4X1X*XM.G F ;.b F v ( -X8XxXqX2XC.-.X.4.",
"..9 q u W W ! W ! ) Q / _ N.L.*X;X3X7X3X3X2X[.A.b.C @ # t b &.F b P ' } eXeX0XeX0XzXvXzX4X1XG.~ V  .$.k.K M n.-X2XcXDXNX~.=.X.*.",
"b C # q d A h ~ R T Z h a R E ] %X*X1X;X2X;X).M./ g @ o w F b ..b F ' uXyXyX4XlXmXmXzXrX5X*X[ W n k.k.k.b J ( M.:XxXDXDX[.F o.&.",
"b b b +.b b D v i.e.4 V +.h U E ] { %X%X%X(.K.( W u o o o  .:.t.K D ` $XyXtX1XlXCXmXrX4X1X#X! Z 8.@Xk.q.J V Q _ K.'.xXDX[.V q ;.",
"b F F b F b b  .i.@.; z +.a g U U ] E ] H.F.) T 4 2 O $ o ..+.$.F S Q ' &XuX*XeXnXmX4X5X$X[ T V @XpXk.o.n x a W ( m.8X7XW.r 0 #.",
"F  .6.c...F L b V , u u 5 d a 6 6 T U ! _ 7 3 1 1 & O % , :.q.F F F a R #X&X%X9XyXyX5X*X] T h OXOXc.k.o.P.:. .6 6 ) G H V V t :.",
"K i.|.fXOXb b l D C C u u V f h 4 7 7 p R 1 & & 1 % % $ 0 :.c.F b &.6 p T N.G.L.$X$X$X{ R S XXdXOXk.#.I pX+Xi.z p 4 ; , , 0 &.&.",
"b |.y.OXb b F V D F F F D C V h 2 2 2 2 g g a & 2 % 1 $ z #.x.y. .b - - 1 6 U E ! ^ Z x x N I.XXo.N x m s.e.t.g a ; ; ; = 0 L K ",
"..gXsX&.b ` G G -.2.2.=.&.F D C p ; u - 2 2 % $ 2 2 1 & b o.+Xt. .....z , D p S $...K &.F F &.X.N S V &.Z Z G A h d - . e @.F F ",
" .x.&.b Z n.V.T.T.-XwX'.'.1.<.F d - 2 - 1 2 1 1 & + + O. .5.fXx.&.&. .&.t.&...F F F F ;.%.#.= w l F G G A b.b.( ( G d B #.#.t.4.",
"b +.b ..) m.^.'.'.8XxXxX[.f.-.&.f ; - 5 4 3 + + $ y y X.o.x.hXhXc.#.F K F F b F F v t  .C : = V F F =.=.n.V.V.=Xn.H D .. .:.e.&.",
"F b K Z.D.(.=X[.-X:XcXbX9XV.H G Z V i 1 & 3 O O & $ O.;.y.y.aXaX.Xr.F K F >.*.D * d C -.l < 0 A -.Y.Y.C.~.E.:X9X:Xn.G b b |.y.,.",
"K F G m.(.-X:X:X7XjXVXAX:Xn.b.H S Z u O ; ;.j s U R :.;.y.y.y.y.r...b X.C i J 5 4 6 g A G d G ( V.W.!.4X,X~.!.9X[.C.=.V P.fX|.&.",
"b b ( F.K.-X2X8X7XVXSXNX:X( b.b.G f 5 M 8.K g ^ ' / V ;.X.y.y. .;.b  .< u u g j j a R / ) ( ( Z.S.!.{.0X4X[.'.3X:XQ.-.C z pXa.&.",
"O.X.( M.].jXjXjX8XVXvX-XE.W Q H P d n 9.J i Z ` ` Q d ..q.r. . . .f , u P g ^ ^ ^ ' L.L.L.D.{ _ L.`.{.tXyXyX3XqXlX7XT.F z l  .&.",
"c S Q Z.^.NXNXjX7X3X:XE.( W R p k.k.7.9.H d =.=.H A X.r.t. .b &.h a 6 a B.j Z } ^ L._._.*XG.D.! E ~ `.4XyXyX0X3XlX3X~.=.f t F F ",
"m x G b.Y.cXVX3X2X-XR._ g W S o.k.8.8.F =.=.=.-.V V r.b L b C R ( n.n.n.S.j Z } } L._.<X*X%X#X{ ! ! ^.[.tXyXtX9X2X-XW.D d  . .F ",
"c N C G n.T.3X~.~.M.g a g W 6 9.k.dXgX; d f d q d r.r.b b Z R M.Z./.`.!.S.B.P.P.} L.tXeX*X%X#X{ ] ! J.S.6X6XtX9X[.Q.-.C r  ...K ",
"c c t C D =.-.-.b.h u 5 p p N n n dXK X.; 4 0  .r...r.y./ Q m.).^.0X3X'.E.S.S.B.N.G.9XrX4X*X%X#X[ R _ M.R.'.Q.Q.V.H D C z  ...,.",
"N c X.l x N x d < , , 5 s o.N L K n n n r.r.t.#. . .%.4.b._ ;X4X4XvXvX:X~.E.R.S.N.N.>X9XlXzX3X=X{ E T ) V.3.Q.Q.G f D V t b <.&.",
"b c 9.l.o.m N x 8.0 , 4 l.N n q.9.n x t.$... . . .b  .` Z.;X8XwX4XvXcXjX~.Q.W.S.n.N.{ (.zXzXwX7XK.! a h h =.f V 0 D C < l b p.L ",
"c 9.x.l.l.O.N o.l.r 6 X.z.7.9.X.n n I z.z...f b b b b >.Z.;X8XwX8X9XlXMX[.Q.W.d i / ) H.2XwXwXjXH.~ a a 5 < , : , f , ; M I. XF ",
"N x.OX@Xm c c =.G G A o.7.m 7.n N O.f a Y T W C b K b ,.N.J.K.:X8X7XlXBX8XQ.f.q 0 =.G ) /.:XwXwXD.R h i , ; , : q 0 ; z ..}.4.F ",
";.z.XXb c ..'.R.b.G A 7.X.#.I n p p T T E F.H.R b b b :.[ D.L.].7X7XqXvX7Xg.f.9 w *.V A C.[.3X8X) ) T h 4 z ; < , = b  ... .&.F ",
"N }.;.c  .~.[.[.R.( / 8.q.8.n a W m.H.K.*X=X=X{ R &.o.#.T _ F.`.[.8X2X[.~.g.D 8 c v r f H n.0XeXL.W g C v m 9 b :. . .b b b F F ",
"c U.U.M Z.'.-X[.'.b.Z $.k.$.h Q _ H.K.;X3XwX8X;XF.B. . .K Q M.E.!.-X2X[.~.f.@.z ..9 w i Z / ;X9X).A g @.M B c ....b b b  .F b b ",
"c 0.8.P A.2X2X2X^.m.X.o.K i h ( H.(.).:X8XwXwX2X(.V.I.iX#.X.d -.T.~.-X~.Q.*.+.w.%.v   0 d Z G ).;XV.f +.u. .+.+...b &.a.h.4.b  .",
"c | 8.` ^.8XvX7X).) J K f u H b./.].-XwX2XqX8X-X).n.;.I.#.O.n q 1.1.f.Q.j... .&. .b : X < , d 1X1XG - +.......+.i.+Xa.a.h.s.+. .",
"c | X.) ].7XNXqXJ.T J ;.u G Y.2.'.[.7XjXwX2X:X[.`. .b a.}.#.m t t +...v  .e F b b b F b , ; ; D.*XC < ..b b +.y.+XhX|.a.a.p. .b ",
"m 0.0.!.'.-XvX2Xn.6 :.F v -.8XwX2X'.7XjXwX:X-X'.Y.c  .e.+X|.O.c = = c e 8 w b  .;.>.F b b b z q r w  .b c c s..XsXaXh.a.p.p... .",
"N XXdXoXG E.E.b.f r F F F r 8XwXwX~.:X7X:X'.'.~.+.c %.i.u.c.0.;.M * : = : b b ..e.pXpXpX .b b L ..$.c F b b $..Xs.h.a.a.s.@. .b ",
"c N I.9.V u g 0 y I.iXK F o.z wXQ.d.Q.~.Q.W.Q.w. .b K e.y.e.w.K :.9...;...K P.4.y.|.+XsXaX....b ;.y.b b c  .a.y.a.h.s.a.+. . .m ",
"N c c m c 8.O.c b U.iXF K b z l  .u.5.w.i.e.y. .b b K e.e.5.&.F $.4...&.b b I.}.a.e.a.|.|.y...F K X.O.N b  .w.+.@..... . . .c N ",
"c b c c c c X. .o.#...&.F ` :.u.%.#...o.$.t.b b K b b b F F K ;.....+. .b u.w.p.+.4.+.r.$.%.b  .m X.| b b  .o.o....... .b m N b "
};
