/* XPM */
static char *_24c8cd88f5b42f284c905bfb1a23c6802Y9s5P9RsIrHv9Z[] = {
/* columns rows colors chars-per-pixel */
"64 64 255 2 ",
"   c #060000",
".  c #0C0000",
"X  c #140000",
"o  c #1C0000",
"O  c #240000",
"+  c #2D0100",
"@  c #2B0A04",
"#  c #330000",
"$  c #3B0100",
"%  c #350B04",
"&  c #3C0B03",
"*  c #3B1208",
"=  c #420100",
"-  c #4B0100",
";  c #440B02",
":  c #4C0B01",
">  c #4F0E0A",
",  c #540100",
"<  c #5B0200",
"1  c #540C01",
"2  c #5C0B01",
"3  c #580F0A",
"4  c #491307",
"5  c #5C1302",
"6  c #53120B",
"7  c #5B130B",
"8  c #551606",
"9  c #630300",
"0  c #6B0300",
"q  c #630C01",
"w  c #6C0C01",
"e  c #690E09",
"r  c #730400",
"t  c #7D0400",
"y  c #740C01",
"u  c #7B0C01",
"i  c #790E08",
"p  c #631202",
"a  c #6C1201",
"s  c #64140C",
"d  c #6C140B",
"f  c #641A0B",
"g  c #6B1A06",
"h  c #741401",
"j  c #7C1402",
"k  c #7D1A03",
"l  c #75150C",
"z  c #7C130C",
"x  c #7C1C0B",
"c  c #741A07",
"v  c #7D1C13",
"b  c #791811",
"n  c #6B1810",
"m  c #742808",
"M  c #7D2117",
"N  c #6F3008",
"B  c #830500",
"V  c #8B0500",
"C  c #830C01",
"Z  c #8B0B00",
"A  c #800E0A",
"S  c #940300",
"D  c #9B0400",
"F  c #940C01",
"G  c #9C0B01",
"H  c #960F0B",
"J  c #831401",
"K  c #8B1402",
"L  c #841B03",
"P  c #8B1B03",
"I  c #8D1A0C",
"U  c #87160C",
"Y  c #941301",
"T  c #9C1401",
"R  c #941B02",
"E  c #9C1B03",
"W  c #94160B",
"Q  c #9C160B",
"!  c #941C0B",
"~  c #9A1C0D",
"^  c #841D12",
"/  c #8B1C12",
"(  c #831511",
")  c #951B11",
"_  c #A30700",
"`  c #A30C01",
"'  c #AB0D02",
"]  c #AB0904",
"[  c #B30C03",
"{  c #BC0C04",
"}  c #B70A04",
"|  c #A41402",
" . c #AC1302",
".. c #A51B04",
"X. c #AB1B02",
"o. c #A31C0B",
"O. c #A9150A",
"+. c #B41302",
"@. c #BB1402",
"#. c #B31B02",
"$. c #BB1A03",
"%. c #B31C0A",
"&. c #B9160A",
"*. c #B11C13",
"=. c #8B2304",
"-. c #8D2309",
";. c #852407",
":. c #942303",
">. c #9C2303",
",. c #982807",
"<. c #993708",
"1. c #862215",
"2. c #952616",
"3. c #883909",
"4. c #A42403",
"5. c #AC2303",
"6. c #A32B02",
"7. c #AB2809",
"8. c #B42302",
"9. c #BC2302",
"0. c #B42A02",
"q. c #BC2C03",
"w. c #B8260B",
"e. c #A43203",
"r. c #AA3507",
"t. c #BA3705",
"y. c #A82616",
"u. c #B92916",
"i. c #B13A18",
"p. c #AC3122",
"a. c #C30C04",
"s. c #CC0D00",
"d. c #C40702",
"f. c #D40E00",
"g. c #C31502",
"h. c #CC1300",
"j. c #C31A02",
"k. c #CD1B00",
"l. c #C3190B",
"z. c #D41400",
"x. c #DC1500",
"c. c #D21D00",
"v. c #DB1B00",
"b. c #C11B13",
"n. c #E71800",
"m. c #F41C00",
"M. c #FE1C00",
"N. c #F71700",
"B. c #C52201",
"V. c #CC2302",
"C. c #C32C01",
"Z. c #CC2B02",
"A. c #C2230B",
"S. c #C22C0C",
"D. c #CE290D",
"F. c #D32401",
"G. c #DA2401",
"H. c #D32C02",
"J. c #DA2D01",
"K. c #D62A0B",
"L. c #C43202",
"P. c #CA3606",
"I. c #D33301",
"U. c #DB3302",
"Y. c #DB3A01",
"T. c #D6370A",
"R. c #C62816",
"E. c #C4391B",
"W. c #E42501",
"Q. c #EC2500",
"!. c #E42B02",
"~. c #EC2D01",
"^. c #F62400",
"/. c #FE2500",
"(. c #FE2C00",
"). c #F22D02",
"_. c #E43302",
"`. c #EC3302",
"'. c #E43A02",
"]. c #EC3A02",
"[. c #E93A0D",
"{. c #F33302",
"}. c #FE3400",
"|. c #F43B02",
" X c #FF3B01",
".X c #FA3C0C",
"XX c #E63410",
"oX c #CA3626",
"OX c #CB3128",
"+X c #8B4309",
"@X c #995008",
"#X c #A9460C",
"$X c #A9590C",
"%X c #B4540D",
"&X c #BB6A08",
"*X c #B66811",
"=X c #B56D12",
"-X c #CB4507",
";X c #DA4407",
":X c #CF4E14",
">X c #E94706",
",X c #F44301",
"<X c #FE4202",
"1X c #F44A02",
"2X c #FF4B01",
"3X c #F8460B",
"4X c #ED5406",
"5X c #FF5401",
"6X c #FF5B01",
"7X c #FF5B0B",
"8X c #F75607",
"9X c #F35315",
"0X c #C46809",
"qX c #C57A09",
"wX c #D8670B",
"eX c #FF6301",
"rX c #FF6B01",
"tX c #FE640B",
"yX c #FF6C0C",
"uX c #F56405",
"iX c #FF7301",
"pX c #FF7B01",
"aX c #FF730E",
"sX c #F87907",
"dX c #FE6713",
"fX c #FF7815",
"gX c #E96B0C",
"hX c #C74226",
"jX c #D75A25",
"kX c #CB4736",
"lX c #D5533A",
"zX c #CD522E",
"xX c #DD6A27",
"cX c #E06B23",
"vX c #DA5C49",
"bX c #E46A5B",
"nX c #D68809",
"mX c #D68E08",
"MX c #FF8300",
"NX c #FF8A00",
"BX c #FF840C",
"VX c #FF8B0C",
"CX c #E79804",
"ZX c #FF9403",
"AX c #FF9C03",
"SX c #FF980C",
"DX c #FF9519",
"FX c #F58910",
"GX c #FFA706",
"HX c #FFA717",
"JX c #F7AE11",
"KX c #FF9722",
"LX c #FFB522",
"PX c #FFAD22",
"IX c #FFC729",
/* pixels */
"O.[  .' &.@.&.g.$.j.g.g.j.j.g.@.g.T C g.$.@.| @.g.g.g.A.$.g.g.j.j.@.g.j.g.g.a.{ a.a.a.b.d.a.{ G ] { a.} ] ] i &.&.O.+.{ g.l.@.G ",
"' [ +.@.@.@.g.l.@.g.j.g.l.$.@.&.l.$.@.j.@.g.l.g.A.g.%.I 1.U F F S C C Z O.&.a.d.a.s.a.a.d.} S i i 9 } &.} O.H H ) ( ) ( ) a.a.l.",
"' [ ' ` +.$.@. .+.@.@.| J z z U ~ / %.g.A.@.j.l.@.l ^ 1.W j.j.j.@.| F | U / { l.g.vXbXbX} b b b b ( ) H } } } r ` 7.7.z / &.l.{ ",
"' ' O.O.{ [ vXy.E ~ R I L y w q q ( / u.cXS.%.+.Z M ^ #.}.2XG.}. X X(.| i ) zXg.E.vXjXE.( / U ) A i ( b H O.} 0 H U...A W ' &.{ ",
"+.` ' [ &.vXzX~ ..5.5.0.8.5.h a q q z 2.jX%.@.$.f v ../.rXeX5XGXIXIXeX#.y b zXA.kXE 4.X.O.j.+.X.] | u h ( / { { V = $ H i 6 b &.",
"` Y O.&.u./ ~ ^.6X6X1X,XP.q.6.h w q l ) *.OXw.x 7 x #./. X XiXIXIXVXrX#.a n W Y y.#.$.k.Q././.k.X.+. .y w ( ( kXb.] } H > 6 / } ",
"O. .O.u./ v O.{.5XeXrX5X>XL.q.P h a 2 ( o.l.@.l 7 E #.G.}.6XZXAXAX}.C.8.U d K X.#.V.G./.eXeX X/.j.E +.G A i ( E.b.} } 7 6 v / / ",
"F O.E.2.I n.W.H.Y.eXpXiX6X;XL.q.k y 2 e W ` @.W s | #.j.^.2XrX5X2XU.q.k U s R 8.A.2X X<.$X<.5X.XG. .u y Z y z A.OXb.) b A r r F ",
"E P.:X( g.m.^.H.Y.6XNXiXtX6XY.t.5.J q 2 W ' &.+.l I  .$.V.}.<X<XZ.q...k e d X.9.,.<.tX+XCXqXuXdX/.M.| r r u < ' OXvXy.z ' 8X8Xu ",
"Y hX2.s s.N.rXiX2XiXHXLXBXtXdX<X<XR q w ) +.+.@.x T  .#.$.$.9.V.B.5.L h : 5 #.,.CX=XI.#XnXm dXdX/./.| y y w A U e u.) ) 1XuX8XV ",
"T y.7 6 G v.eXeX5XpXLXLXHXaXyX2X|...w z Q ` %.+.Z F J Y +.#.X.8.8.P k = $ ....%XCX@X(..XfXfXfX9X}.v.j.u w q C s s y O.} } V S Z ",
"' Q 4 l Z T G. X2X5XSXiX6XiXrXU.C.9.y U  .t +.+.V y 0 - +.| | R R L 2 $ # 1 ..X.~ !.7X;X,.6.hX7X!.F...j y w w w < 2 < } } < t # ",
" .Q 4 H [ F j.(.2X6XtXeX2X2XI.L.C.$.T G @.r - $ - , = = - C L J K J < $ O # X.#.$.J.,.8 8 f .XK.S.8.E P j P P R a 2 q q - - 0 + ",
"O.I 4 r V Y +.F.2X6XaXaX<XY.q.Z.V.X.< ' OXZ = O $ r < = - F Z  . .Y Y q + 2 T +.j.w.8 4 4 7.!.U.q.>.P L =.:.R R Y q q q , $ $ + ",
"O.d * , q Z T k./.<X5X5X}.U.Z.j.Y 0 } jXxX0 - + = G ` G | F C C Z F  .@.+.Z K @.@.-.8 4 .X0.6.6.6.>.6.6.>.0.4.5.F.#.T q < $ + $ ",
"T o.@ + , y F  .k.m.^.W.W.V.X.0 q 9 R.xXxX< | O.G B F G X.$.#.Y J u | R.kXlXF G g.5.,.K.T.>.e.e.r.t.Y.Y.t.0.Y._.1X4X>Xu q - $ # ",
"O.Q @ # = 9 A G @.k.x.v.v.@.C 9 t F F r < &.j.l.B Z $.B.Z.K.S.7.6.>.P  .hXjX| Z T  .9.H.q.e.t.t.-X>XeXMXpXrXaXtX].4XP.w 9 $ $ + ",
"O.K @ @ o , y F G ' g.@.[ +.C r q G < < +.@.@.$. .#.W.!._.>X>XT.r.>.:.E @.+.V , 0 C #.q.t.t.-X-X;X6XMXpXpX6XtX4X#.Y w < < + $ + ",
"Q q . X . . - 9 0 < < G F V y < # = < < +.+.[ g.k.W._.[.>X3X4X4X>X;Xr.,.R P | 0 0 u Y 8.L.P.;X;X>XVXVXpX2X XV.#...u q < - O O o ",
"w o . . . . o # o + - Z F G G V = + 9 B Z C G g.c.W.].3X7X7X;.;.,.4X;Xe.:.P Y C ' ` #.8.T.>X[.>X8XBXBX5X`.J.$.X.Y u < = + o o o ",
"X . X + # # # o o , r t S G D $ $ # < r B B G g.-.7 8 t.7XtXm $X*Xr.9X>Xt.:.o.u  .k.#.0.T.[.3XaXaXtX`.I.8.X.T F C = + o o o o o ",
". . . , 0 t , - - $ 9 < - $ $ # $ - y _ F ` g.c.g =X0X3.gXKXDXnXmX$X7X9X;X2.w.K u  .! >.T.XXXXfXtX3Xt.8.8.| F F O + $ < # # O o ",
"X X . o B B B < = # - - $ = 9 < 0 t B C Z G G h.G.qX$Xc KXDXVXVX*X#XDXaX;X7.:.Y u Y j P 7.T.T.T.P.S.S.8.j.h.' r , < r V B , # + ",
"O $ + < B V F t , = - 0 9 0 r G u u C y w w F | G.K.;X3X8X7XyXyXKXKXBXaX;X6.! #.K 9 h ! 7.w.u.u.R.S.D.K u r 0 < 9 9 9 < 9 < , $ ",
"o = - < B _ _ D 0 < D _ ' ' ' ` ` ` T C u y J +.c.J.T.>X4Xr.t.aXBXBXaXtXT.,.>.#.@.q J ! 7.w.u.K.D.K.F.Y C r 0 0 d.{ V r 9 , , = ",
"O = - , B _ x.x.} D ' ' [ [ +.@.#.#.%. ...z C E #.V.K.T.I L U ,.9X4X>XT.E.=.E @.O.K W P *.o.O.R.K.!.^.^.m.m.[ x.s.d.S B 9 , , $ ",
"O + - , V d.n.n.s.V ` x.M.}. X/.(.Q.A.$.$.O.K j J | S.7.L % % % L dXgX:XS.k O.%.K K K L K E E D.K.XX/././.M.M.m.h.s.D r r < , + ",
"+ O - , V _ f.s.z.` #.^.}.5X7X.X.X.X.XD.R.%.w.K u L A.K.c % % % * ,.jX-X,.a &.i.J J K J #.D.D.K.~./.(. XiXeX/././.N.d.B r r < $ ",
"O O O < 0 V _ a.z.g.:.>.}.eX6X2X<X<X<X.Xw.! U K h u K $.D.7.P.4 & s w.>.L Y hXzXJ j Y u J K D.~..X<XMXDXHXDX X}././.[ D r 0 < + ",
"O # O + r S G { x.5 ; =.<X6X5XeX3X.X=.=.,.7.P j J y r T A.A.w.w.L L 5.K J &.&.3.w j | j y J D.{.7XZXGXVXBXiX5X5X<XN.s.{ r 9 < O ",
"# B O O < S F ' @.@XCX&XpX5XeXiX4X=.<.% -.K.7.L Y | r w +.&.%.%.%.X...P @.$.X., y u Y P L K F.`.yXSXZXeXrXeXrX2X/.n.s.r < 9 = O ",
"- V + O - V D ' x.&XCX0X-XNXNXeX-.$XnX+X6 XXS.U u | t q K Y T  .| ..| Y :XjXl - y y j j L E w.H._.7XtXtXeXeX X).n.v.D 0 < $ O O ",
"S S S # , 0 G ' z.M.0X:.iXNXNXGXL &XCXm [.XX>.K u O._ = $ # - < W u u h S.w.O O : h h 2 q R >.Z.].7XpXpX2X|.{.~.k.Z r 9 < O + O ",
"S D D 9 # 9 t ' @.^.(.}.5X6.4.DX,.;.i.9X[.XX4.K y O.G < $ + $ = = # = 1 h + o o # d h : - E R >.C.3XyXyXY.T.Z.Z.Y t r 0 9 < 9 = ",
"D D D B $ < t ` +.v./.}.|.8 m yXdXaXtX.X3Xw.E j y Z Z , 9 9 0 - $ + # - O O + + + j R k 1 1 E >.6.L.>X,XJ.P.q.5.Y C t 0 t B 9 < ",
"- t t B 0 - t ` [ T E /._.4 4 :X<X7.2.3XK.4.P y u V B V _ _ S r < - - 2 q 5 1 # # $ E I 1 : E X.8.B.F.I.S.r.=.R K K C t ' D r , ",
"< t t t # # $ ` Y J J j.!.4 4  XT.L J >.4.R E w F A # V Z G , < - - , 2 2 1 2 & & k 4.X.j a q U j X.w.7.7.>.=.>.R K @.a.{ } S + ",
"- t 9 + # # , z 1 q U #./.=.=.}.R k j z >.O.u B _ 0 B V F F , < , - : : 1 p p $ & : E P J a 2 1 1 2 L 4.5.w.0.q.q.j.c.v.s.} B $ ",
"= t - + # $ - : & ; 1 U $.k.9.A.J ; & j L j q B F r [ +.G | #.X.E J a 5 5 5 a ; & : ~ 8.5...R j q h q :.5.4.0.L.H.I.J.c.g.+., = ",
"= = - $ $ $ $ & & ; p K +.#.8.%.d & % 4 q 2 < 9 F } @.@.j.B.F.B.8.4.h p p p a 5 : 5 :.w.B.$.| K L - 1 R P :.>.I.'.|.{.W.c.g.B - ",
"X = - t B t < = # ; e P z j +.+.j & % % % & < 9 { g.k.F.J.~.!.J.Z.8.:.p 5 5 1 p ; 4 ;.5.9.k.k.C J : p P =.>.t.1Xt.,X X}.!.V.@.- ",
"o # < t V S B 0 , , q j j j Y T h & # ; ; 9 V { h.v.W.{.{.6.r.|.`.U.0.g 5 L 5 p ; : ;.P X.j.g.Y u q P P 4.I.,X$XqX<.2X*X=X4.g.- ",
"X X < V S D _ _ - , j j j x z j z & & r ' a.a.h.#.4.}.1X].;.m -X1X'.I.m p R a a g g x I K Y g.T h w P P :.I.>X&XmX@X6X*X*X5 k., ",
"X X 9 V D S D _ - O q j 1 X q y c - ; [ { a.z.#.P P ;XrXrX$XCX@X5X;XI.0.,.R a p h 5 1 k R $.j.Y w q h ,.=.,.>X+XN 6XpXpX8 P j., ",
"    - r S D D - O O + < - - , q w $ 1 _ } s.n.,.0X<.yXeXeXwXnXf 8X;X<.4.L a q q j p : 2 U T  .w h : p R L :.Y.1X2XpXMXMXeX~.k., ",
"    + = t V t - = $ , F , , 9 < < < < C @.a.~.CXCX$X6XiXMXiX<.,.4X;X<.=.c a J a q K J h 2 : $ : 1 $ # 5.k :.I.Y.,X,X;XeX2X/.@.- ",
"    . o = t - - - 0 G G T T J u J w q w G @.V.@X0XU.5XMXNXMXrX6X>X%X6.:.c a a q w T ..E U 2 $ % p # # R k L C.I.L k L {.(.n.+., ",
"      O $ $ $ - 9 G ` | ..| ..T Y T q 2 y @.h.P L /.}.<XpXpX6X1X;Xe.=.j h a J Y T X.%.X.$.K L ~ ,.$ $ p R k 4.q.p 4 p r.pX/.' - ",
"O # X # + $ - < G  .#.k.V.j.#.#...Y K 2 y +.g.z.m./.}. X6X5X2X;Xe.:.=.k E .. .@.j.#.$.B.&.L j k ! a - ; L a P 5.5 % % 8 gXiX` = ",
"$ $ $ # # - r G  .z.n.n.Q.}.}.~.#.T Y y h  .@.z.x.M./.rXBXBX3XT.,.=.R P T | +.z.k.$.B.A.5.>.o.z U L 1 ; 1 h h E R p : 8 -X .G = ",
"+ # # $ - t G | m./.}.5X X X X{.#.X.Y w y  .[ } z./.B.=.sXDX'.S.>.R K Y .. .@.z.m.F.V.9.4.4.4.4.J J I 1 q k L P K L +.k.F F G $ ",
"# + + r B F ' M./.<XpXGXAXMXKXKX|.5.R w q C G  .h.n.L x m cXU.S.P k K J J  .g.(. X7X2X2X~.9.R R L L I h a h p : h J j u 0 9 < $ ",
"# # = t B ` M./.5XeXGXGXAXZX#X#X<X8.R y 2 < F ' g.c.m c x t.I.0.E P j J J @.g.}.ZXSXPXHX X~.q.P j j a a L E J 1 8 h j j y 9 < # ",
"$ $ - B Z  .M.}.5XrXMXZXMXsXf N ].8.R w < < 0 +.g.$.f * 4 7.U.5.4.h w J  .@.c.pXZXGXLXLXSX2X!.:.L y y j X.X.#.>.p a 5 2 w 2 - $ ",
"$ = , C F | 9.H. X<X<X6XMX+X&XN _.8.k w 2 , Z } j.k.% @ % =.Y.0.:.h q y  .g.c.<XeX2XMXGXJX6X<XZ.R y w Z #.#.8.B.C.0.:.k q 2 = $ ",
"$ = - Z T @.5.3.;.L.5XuX#XnXmXY.Z.L j J - - r +.$.:.@ @ @ ,.>X6...p 2 ` +.#.k.Q.}.<XrXeXrXeX5X}.B.u y J X.V.!. X'.].Y.B.T q = $ ",
"# = - Z T j.m CXCX-.|.wX#X+X0XZ.>.L P y 2 2 G +.$.,.* * f %X].4.:.a , q ` | 8.Q.}. X2XrXMXMXeX/.k.Y < s #.W.}. X5XeXiX5XB.J - $ ",
"o $ - 2 T X.5.CX3.I.|.NXZXrXZ.0.,.R a q , 0 B  .c.:.f 8 g gXeX6.P p , $ G +.#.H._.,X<X5XMXGXJX6Xk.q , e B.}. X<X5XSXSXZX).R y $ ",
"X o - < Y | #.V.B.5.I 7.{.0.6.>.L 1 1 $ s u G ` j.>.g 7 -.#X6X4.k W ^ l ,  .$.V.C.'.,X<XMXGXGXQ.X.q e p  .W./. X5XrXeX<X~.L 0 $ ",
"o X # 2 C Y T ..X.-.4 4 -.>.>.h 1 ; 3 n 1.< u G  ...=.I ,.q.j.#.d 1.~ 1.1.1 5 R 0.L.].Y.|.U.W.V.n d ( e e L F.H.H._.|.}.#.j w = ",
"7 3 3 = = - w L Y I * * * x ..q > 7 f ^ I l 7 i G  .X.8.4.G.$.~ c ) O.1.2.7 7 4 > 7 :.0.Z.F.B.2.c W v v s d o.E 5.0.0.~.a : y e ",
"e s > > > 6 n # & s v v M f 1.l 7 n ^ y.o./ 6 3 y T | | k.$.Y 1.^ o.E.jXy.1.s 6 6 s c ! 2.,.) / / { ! ) ) / / x p s ! &.1 y *.H ",
"G H 7 s 3 b M x s d ^ M v v v v 1.4.&.oXoXy.) n t Z F Z Z %.) ) Q @.:XwXjXp.y.[ @.~ 7.~ ! 2.%.&.kXjXjXOXa.d.p.p.2.2./ O.d.{ &.a.",
"O.&.Q Q O.p.hXoX .) 1.1.1.^ o.` O.&.{ R.OXR.a.Q d.d.+.{ { { @.{ a.} @.:Xu.u.+.+.%.' _ { g.R.oXoXhXoXg.l.d.l.OXOXR.u.&.a.a.&.a.a."
};
