/* XPM */
static char *_25788fe2203410edb50d9dc87d8710fuRbLJTgb6Y7SFErq[] = {
/* columns rows colors chars-per-pixel */
"64 64 256 2 ",
"   c #060000",
".  c #0C0301",
"X  c #0F0905",
"o  c #130201",
"O  c #1C0100",
"+  c #140905",
"@  c #1C0B06",
"#  c #1D0E08",
"$  c #150E08",
"%  c #1D1109",
"&  c #1C1107",
"*  c #240201",
"=  c #2C0100",
"-  c #240B06",
";  c #2D0C06",
":  c #230E08",
">  c #2B0E09",
",  c #340100",
"<  c #3C0200",
"1  c #340F09",
"2  c #390C07",
"3  c #231306",
"4  c #23130A",
"5  c #2C130A",
"6  c #2C1B09",
"7  c #291B06",
"8  c #33130B",
"9  c #3B140C",
"0  c #341A0B",
"q  c #3C1B0C",
"w  c #371704",
"e  c #391C10",
"r  c #2E2204",
"t  c #3B230A",
"y  c #382707",
"u  c #362B10",
"i  c #430100",
"p  c #4C0200",
"a  c #440B03",
"s  c #4B0C03",
"d  c #4B0D09",
"f  c #430E0A",
"g  c #540100",
"h  c #5B0200",
"j  c #550C02",
"k  c #5B0B02",
"l  c #5B0E08",
"z  c #550E08",
"x  c #43140D",
"c  c #4C140C",
"v  c #441A0D",
"b  c #4C1B0D",
"n  c #491605",
"m  c #54140B",
"M  c #5C150C",
"N  c #531B0C",
"B  c #5B1A0C",
"V  c #581305",
"C  c #441A11",
"Z  c #4A1B11",
"A  c #441610",
"S  c #5A1B11",
"D  c #630400",
"F  c #6B0400",
"G  c #630C02",
"H  c #6D0C01",
"J  c #680F09",
"K  c #730400",
"L  c #7C0500",
"P  c #740B00",
"I  c #7B0B01",
"U  c #710D08",
"Y  c #6C1403",
"T  c #64150C",
"R  c #6B140B",
"E  c #641A0C",
"W  c #6D1A0C",
"Q  c #671604",
"!  c #741402",
"~  c #7D1302",
"^  c #7B1B0A",
"/  c #771809",
"(  c #681A10",
")  c #751C12",
"_  c #7A1C12",
"`  c #472809",
"'  c #54270C",
"]  c #493608",
"[  c #593808",
"{  c #562611",
"}  c #4B2113",
"|  c #67260B",
" . c #77240A",
".. c #67360A",
"X. c #77380C",
"o. c #7D2113",
"O. c #6B3112",
"+. c #5A4308",
"@. c #4F400A",
"#. c #674709",
"$. c #795606",
"%. c #734E07",
"&. c #7C6106",
"*. c #830401",
"=. c #8B0500",
"-. c #830B02",
";. c #8B0C00",
":. c #8E0E08",
">. c #940300",
",. c #940C01",
"<. c #9B0C03",
"1. c #9C0501",
"2. c #831401",
"3. c #8C1403",
"4. c #831B04",
"5. c #8B1B03",
"6. c #841B0D",
"7. c #8A150B",
"8. c #931301",
"9. c #9C1303",
"0. c #941B02",
"q. c #9C1C03",
"w. c #931C0B",
"e. c #991709",
"r. c #841D11",
"t. c #901E10",
"y. c #A30C03",
"u. c #AA0D04",
"i. c #A70904",
"p. c #B30C03",
"a. c #B90D07",
"s. c #A41403",
"d. c #AB1402",
"f. c #A41A04",
"g. c #AB1B03",
"h. c #A41309",
"j. c #A31B0A",
"k. c #AB1809",
"l. c #B31303",
"z. c #BB1303",
"x. c #B31B02",
"c. c #BB1B01",
"v. c #B41509",
"b. c #BA1409",
"n. c #B31C0A",
"m. c #BB1A09",
"M. c #872408",
"N. c #942202",
"B. c #9C2403",
"V. c #962807",
"C. c #863609",
"Z. c #9B3609",
"A. c #812113",
"S. c #903214",
"D. c #A42303",
"F. c #AC2204",
"G. c #A82908",
"H. c #B42402",
"J. c #BC2302",
"K. c #B32A01",
"L. c #B8280A",
"P. c #A83507",
"I. c #BC3C0D",
"U. c #B7350A",
"Y. c #B52B11",
"T. c #C41B01",
"R. c #CC1B00",
"E. c #C61400",
"W. c #D71900",
"Q. c #CF0D00",
"!. c #E71600",
"~. c #FF1C00",
"^. c #F51B00",
"/. c #E70A00",
"(. c #C42202",
"). c #CA2401",
"_. c #C32D00",
"`. c #C72A08",
"'. c #D42301",
"]. c #DA2401",
"[. c #DB2C02",
"{. c #D42B06",
"}. c #C73507",
"|. c #D33302",
" X c #DB3302",
".X c #D73807",
"XX c #C63D10",
"oX c #CA2B12",
"OX c #E32401",
"+X c #E42D01",
"@X c #EB2D02",
"#X c #EF2500",
"$X c #FE2400",
"%X c #FE2C00",
"&X c #F42701",
"*X c #E83704",
"=X c #FE3401",
"-X c #FE3B01",
";X c #F53A04",
":X c #964A06",
">X c #8F510A",
",X c #AA4A09",
"<X c #BA440A",
"1X c #B94411",
"2X c #AD530F",
"3X c #916C08",
"4X c #AB730A",
"5X c #C8460A",
"6X c #D7480A",
"7X c #C7550C",
"8X c #D6590D",
"9X c #C74912",
"0X c #CB5713",
"qX c #D55810",
"wX c #DA4F11",
"eX c #E74607",
"rX c #FE4202",
"tX c #FE4B02",
"yX c #F84608",
"uX c #E5560A",
"iX c #FF5501",
"pX c #FF5B02",
"aX c #FA580A",
"sX c #E55B12",
"dX c #FF5213",
"fX c #D96512",
"gX c #D0670C",
"hX c #FE6301",
"jX c #FE6D01",
"kX c #FC6B0D",
"lX c #FC640B",
"zX c #FF7401",
"xX c #FF7B01",
"cX c #FE740D",
"vX c #FE7B0B",
"bX c #E86812",
"nX c #FC6814",
"mX c #FD7915",
"MX c #E8690E",
"NX c #FF7729",
"BX c #B28D07",
"VX c #9E8006",
"CX c #FF8401",
"ZX c #FF8A00",
"AX c #FF850D",
"SX c #FF9402",
"DX c #FF990A",
"FX c #FF9618",
"GX c #FF8213",
"HX c #FFA407",
"JX c #FAAF13",
"KX c #FF9736",
"LX c #FE9923",
"PX c #FFAD26",
"IX c #D4AC05",
"UX c #FFC828",
/* pixels */
"a.a.m.v.H.Y.k.w.r.=.L F <.b.m.b.b.b.b.b.b.k.a.a.a.u.p.h.i.b.9Xm.m.z.b.a.d.v.e.<.7./ R g g g g i i < < k e.I.b.L.a.a.v.b.b.k.h.3.",
"a.a.b.Y.k.Y.9.o.V.pX,.<.h.a.b.b.b.`.b.b.b.a.a.a.u.i.D D :.L.7XI.1X`.L.u.i.7._ _ 6.l.R.E.T.z.l.p.y.y.,.T t.0X9X9XY.h.k.b.a.Y.I.y.",
"a.p.v.v.n.n.b.6.5XaX=.9.h.b.m.l.U.0XXXb.a.a.a.u.i.l l K F F 3.n.9Xv.h.-.S ( r.h.).%X$X&X%X$X!.%XzXu.;.M ( U.9XZ.o.A.k.~ h.1X1Xh.",
"y.h.i.l.d.l.h.o.6.6XK 9.v.m.G.A.6.9XXXXXT.b.i.l J D K K F M R f.<X,.L R W Q.E.W.&X=X=XtXhXtX%XxXxXjX,.T ( Y.Y.A.F.[.#XH.Y j ;.y.",
"1.*.6.r.<.u.k.A.) R f.d.m.A. .) ^ h j.XXwXXX:.l l *.K L U J <.h.U./ B m 5 > e x `  .tXxXCXhX-XiXzXjXR./ ) e.A.t.iXSXrX=X#Xq.R h.",
"<.=.t.f.<.k.k.k.h.e.l.v.h.) o.eX_.H H f.9X9XL.l J *.R A 8 R <.h.7.B B 9 8 0 ` @.$.+.5 | :XpX-X=X).OXx.^ o.e.M._.zXHXpX;XK.^ M 8.",
"i.=..X XU d.d.h.U.9XXXv.^ W g.uXeX0.J M :.XXXXL :.e # $.+.| R u.E N M ~ 4.(.|.b y y #.4 q P.rX+X(.c.2.o.o.h.P.*XpXDXjX*XK.M M 7.",
"h.L d.,.:.h.G.:.k.0X9XW B M.'.yX;Xx.3.T T h.d.I 9 4 > 4X] ) W u.m.M E 5.0.J.|.*XP.:XO.5 4 9 *X|.J.q.2.6.3.! _.*XiXiXiX[.D.M M j.",
"y.*.K -.s.h.T T f.9Xf.M N 5.g.*XkXeXH./ ~ s.y.9.1 ` 2 %XC.5Xw.s.'.6.B 4.B.J._.|.tXhXzXb 4 4 c D.F.q.3.3.2.q._.-X=XrX=X{.q.M W s.",
"i.h.Y.I.<.g M S 4.h.g.B B 5.D..XcXkX'.c.8.s.9.s.q 9 7.%X-Xm / d.k.x.M.M.M.L.K.B.U.eXeXeXv 5 v 0 0 v ! 3.3.g.J.+X-X-X%X'.w.B ) u.",
"v.0X0X9X-.J T M t.w.j.k.W N.K.K.jXpX-X].W X.0.[ 9 9 ~.hXDX..` s.h.`.}.G.N.K.D.N.B.|.|.B.b v C 0 8 +.y m 5.g.x.(.+X=XOXx.r.( e.i.",
"9X0X9Xy.T U I ! T R e.d.g.f.B._.xXxXtX0 #.#.& b A f.$XzXLX' 8 m f.B. X`.Y.G.K.5.N.D.N.M.M.~ 4.E W y 0 0 5 5 q.x.T.R.d.e.:.9.u.y.",
"h.5X<.R T P 9.P H / 2.f.g.s.D..XCXX.7 ] y 5 Z m 8.$X$X-XFX{ > x 7.M V.{.G.G.N.0.5.5.5.B.q.D.N.Q p f v } 0 t 9 R H P h.d.u./ 7.y.",
":.U S M / d.l.I u.9.v.f.f.5.Z..X` ] y ' ) }.L.`.{.&X$X%XvX%.@ : c B S 5.H.4.G j k 4.5.! G < , , a j w.~ t y 6 5 s I h.e.R ( T y.",
"e./ M J s.l.9.x.$X$XW.].K.B.B.N 7 q AXAXlXyXoX`.{.#X+X&XtX2X@ 3 5 B E e.n.k Y p s Y H G s < , < R 2.~ 5.N v y 6 ; h.h.E ~ _ ( 6.",
"L F H -.s.x.T.'.$X$X=X+X`.K.N +.[ 6XeXaXcXnXoXoXoXoX.X@X=X| 3 : ` ` { H.~ s H 2.2.I ! H ! j Q w.w.5.4.4.~ W b 0 m e.R ( h.<._ F ",
"< P F 3.d.R.$XrXlXnXdXdX{.G.t 0 C 5X5X;XcXnX.XY.oXoXoXOXoX5 # m A : @ 4.2.j ~ 3.;.,.<.3.P s < w.~ 4.D.5.5.N.).V $ w M.c.x.s.K D ",
", < G 8.z.$X-XaXlXnXmXnXt.0 5 A M.}.6XeXeX*X*XY.Y.j.e.{.( @ ; K.c 9 o @ m k 0.s.T.T.T.T.f.2 < 5./ j.D.0._.+XrXP.$ 6 X.[.(.x.P D ",
"i p k 8.T.%XhXvXpXkXmXX.0 ` S V.P.}.|.eX*X*XoXY.Y.j.e.).> $ d 9Xw.v $ + + d g.c.R.T.8.c.8.g k 3.4.B.G.J.+XtXpXuX# % [ +X{.F.2.H ",
"* p g 8.z.#XhXCXzXaXO.` t Y.;X.XU.U.}.|.oX.XY.G.G.n.0.j.@ @ P.0X,XZ.b 3 : @ ^ m.(.f.3.e.5.k 5.x.c.F.f.@X-XDXJXC.5 % 9 ;X_.J.f.H ",
"O @ g ;.d.R.%XtXpXC.%.} C.-X;X{.{.K.J.K.Y.B.5.w.w.5.2.1 + 5 5.Z.0X2XM.5.n 3X#.K.G.5.5.^ k ~ q.k.J.(.J.tXHXPXJXhX] y 0 .X|.K.x.g ",
"o # # s m f.'.*XX.3X[ S.nX@X#X'.J.x.8.x.H.0.2.! ~ w.2.@ 7 E 8.7XbXfXfXI.Q >XK.V.6.M.^ j a 2.f.k.m.T.).tXPX3Xb ' % r 4 |._.H.x.j ",
"o o @ @ % 8 m b #.` C &XOXOX!.R.g.-.I y.R.g.8.G D 8.b > 9 I U.8XbXbXMX2X| w M.V s a W V Q 3.9.g.n.g./ x Z b ..} 8 ] r v |.'.T.p ",
"o * = ; # # 4 ` 4X{ 4.`.T.T.c.c.y.F F u.u.I I I 2.3.@ @ n ! V.M.a , = s n ..3Xa n n Y Y s k k M v 1 : x ' { 3X%.% BX>Xb F.(.z.;.",
", p g d x 8 5 >X5.V @ 0 b { x x J g F I I ~ 8.e.5.6.+ 6 ~ P.Z.p * * a w N ' ,X0 Q a : - @ @ : 4 : @ 5 x 1 ..C.g.C.BX4 } R c.p.F ",
"g g g F x 1 ,X+XM.: 5 r 3 $ & 7 r 7 r + C.3Xv 8 5 ] 3Xw ] C.Q < * O 2 2X,X,X2X5 2 1 8 8 2 9 9 x C B z.E.3.f #.C.6 +.u 5 k G L F ",
"g g I F x 8 ' P.1 Z 2.V 5 8 2 - 5 9 8 B {.7X%.#.3X6XgX#.$.[ 1 > - O B 2X2X| .Xw v { .. .Y x 2XfXfX8X0.2 y r ] s g...t 9 a g P p ",
"g g -.H v 8 n A C 9 # s ! i h F M Q m B e.W c 1 @ [ ..M.C. .8 8 > . & X.f G.].; x v c B.V.<X7X8X5.T + & 7 4 d.l.s.r $ x = h F = ",
"g ;.s.' ' W K.~ 2.x @ 1 k k K P 3.q.N.P.eXyXcXcX; ' V.I.B.5. .B N . . X + 7 3X9 f  .,X5XgXV.V.V 2 y y y m ! P y.4 7 $ v = = = O ",
"g -.3.' [ hX_.(.D.5.Y V x 3.-.P 3.N.P.6XaXaXLXGX' n bXsXY.F.B.W ^ ^ b 8 +.y X . $ v n 5X7X .n y ] y + M.I Y G k 6 u 4 x * * * o ",
"g =./ ..3XFX=X XJ.D.V.4XU.^ ,.I B.B.5XaXlXvXFX{ x x nXmXwX6XH.k.~ 4.! p | Z + X X X $ w V.; ] @.r n 0.4.5.~ ! Q 6 ] b H = * * o ",
"h ,.B %.4XUXSXtX`._.D.,XG.C.{ / B.U.eXpXmXgXZ x x E mXmXsXsXwXh.3.G Y g p g 8.N & X & @.] #.y | M.V.B.B.wX5X0.B.y u b 2.H < < g ",
"h ,.a , HXUXSXiXrX(.H.B. .| ` ` ' + 8 v S Z A 9 N nXmXnXbXXX5Xd.h p h P h h g.(.[.B.+ IXBX& <XyX6X}.}.}.8X6XK.D.7 %  .B.2.-.L p ",
"D 8.n [ pXzXSXjXrXT.g.9.5.W 8 - ] y ] q : 0 `  .lXaXaXsXbXXX.X8.p , K U.8X! F.C.A 9 ..IXy & jXiXtXrX*X.X|.+X|.<Xu % 6X+X(.3.I h ",
"h ,.:X:XP.-XpXtX=Xc.x.f.2.,.<.D.B  .n ' <X5X#.>XuXuX6XsXsXT.m.8., = D 8XgX5Xc N ` r ..' 3 + :XxXiXGXFXLXrXyXpX] r 4 pX+X].E.P F ",
"* ,.3.,X .;X=X&X).c.l.l.i p y.g._.*XW 0 %.,X%.' 9  ..X.XoXoXx.;.< < D XXqXU.5 ` ] ` G.jX' # ' CXkXGXmXmXAXrXpX] @.>XrX[.'.T.L F ",
"* F 2.%.q %X].T.c.l.8.p i i <.<.).+X1 4 > eXZ A ' t c {.T.9.P H < g g *.p 8 [ [ q.@XtXjXN % + rXaXzXmXmXcX;X*Xu & MX-X).T.f.P D ",
"* h I %.$.~ x.x.x.d.-.H i h y.,.c.g.+ 3 V.yXyX.XM.b 5 M 2.K F D 3.-.g - 0 w b c ).OX=XpXjX+ : =X=X&X=X$X$X#XM.4 t +X+X'.g.s.;.h ",
"O g D L $.[ m f.<.9.,.P g F 1.*.;.f 6 T @X*XeX+X{.M.t 0 d P H 5X6Xc 4 ` ..N C | `..XeX-XpX: @ $X%X;X=X!.W.T.5.4 v '.].T.d.y.=.h ",
"O < h I ..w * * 9 g =.=.p < i <.L t q x.{..XuX'.R.x.A t r d ~ M.| ` ,X .9 A ,X0X.X8XsXyX$X8 > $X$X@X*XQ.E.R.T 4 N T.T.d.<.,.L p ",
"O o g g h ; > - 9 , p D < * = g L ` 5 E.)..XsXbXl.q.T x :XOXM.y 6 t ] y ; K qXfX6XwXuXbX;X+ @ R W.Q.z.d.y.l.5 4 Z d.y.<.,.=.< < ",
"  . o O o * * - x p p p p i p g L 5 9 ,.<..XbXnXN.-.3.j.# I.+.w ; x ' ] 3 @ V.MXsXD.eXeX!.> 9 H E.z.p.<.,.F 4 ] b M <.=.=.p . O ",
"  . . . o ; - 1 A h g g g g h g h @ @ m =._.sXbX0XwXsXL.8 ` $...A *X(.c # & 3 2.U.D |.`.Q.9 9 d.l.d.d.-.D j % 4 x c I F *   .   ",
". . o o * 1 1 9 k -.F g h h D h h @ > x -.XXU.U.P.sXsX) #.D...m dX;X;X{.D.# 3 - P h i.T.a.e q m P P P G h 9 % 4 k g < , o .     ",
"o O O O < ; 2 d g H h k h h h ,.K + . 9 P x.-.P wXsXL...[ 8 G.dXNXdX;XyXoXc 8 5 5 F p.(.d./ 5 8 k P ! H P 5 % 9 ! G < < i o .   ",
"  . i g a ; 1 k G G G P 9.h g D =.X . X h K -.B.6XwXv +.0 *XyXdXKXKXnXdXG.B.9 } t : K D g h > 9 2.8.8.8.| ] % } 3.Y j i h L , * ",
"* i p P F q ; j 2.0.q.H.T.g.F D ,.f + + * i I -.9Xx ] e | yXtXaXKXKXmX*XD.N.B.w.q 7 $.a < k 8 5 ^ 9.g.N.] ] 4 b 4.0.j a p L L , ",
"< i g D G n w q H.rX;X(._.).8.D L A e * @ = D j c 0 3 e yX-XhXcXKXPXnXaX.X[.`.n./ 6 $.- G h x > 9 x.q.v +.& b M.B.B.M.j j L D * ",
"< i g D Y ! ..w  .yXtX*X_.).T.H c x 9 =.< , h c x w 5 -XyXhXzXhXHXFXcXkXaX=X`.c.d.x # @ + d H > 9 ).b % ` } { ;X_.K.B.Y G P =.= ",
"< p H H ! D.5X#.v 8XkXjX|.U.).0.c A d I.D.< c ' q ; ;XaXpXiXhXZXZXhXvXnXyX=XJ.x.l.u.h v 4 ; U > 9 5 % % t b Z.tXjX_.F.q.g.W.Q.F ",
", g P ! F.J._.3X..| kXjXiX X Xc x f U.9X9Xc ` v j y.=XiXhXkXkXvXZXpXjXkXkXyX).l.d.u.* o N A 1 . v $ % 6 } :XCXCXDXjXK.D.c././.F ",
"* p P 2.K._.yXiX%.9 >XhXtXrX Xv 9 M I.Z.x ` 9 9 y.p.~.=X=XtXvXvXzXpXlXlXnX%Xc.l.d.K o O p c @ 4 y ,X:X} >XCXZXZXHXSX=X(.8.,.p.h ",
"* i 2.q.K.rXpXzXzX..b X.pXmX5Xv A f c A @ @ > f y.u.W.~.%XtXzXcXrX-X-XyX$XW.l.u.-.D o o k ~ 0 3XBX] 5XHXHXSXpXxXZXZXrX].8.P *., ",
"* < ,.q.H.yXjXxXZXJX..} 9 C I.x 8 9 9 $ @ - p p 1.i.y.R.$X$X-X%X%X&X$X#XT.l.u.-.F F < * 2 6 # 3XXXf %XxXHXZXrXtX-X;X@Xc.8.L L , ",
"O h ,.f.H.pXpXhXpXzXxXb ; 1 9 n 9 1 > : i < , i h y.=.y.!.~.~.~.~.^.W.z.p.u.y.K p x x 8 4 ] % %.N E.%X-XhXjXrXrX;X@X).g.8.I F = ",
"O h ;.8.g.pXpX X.XtXpXtXa [ * b T.7.2 * * i < g F p.Q.R u.W.z.W.W.z.z.p.T -.m 9 C 9 : ] u +.C A ~ y.^.%XiXiX-X-X+X+X).g.8.= = = ",
"o i ;.,.s.#X;X{. XzXhX-Xn t * 3XgX%...w 2 v 9 9 1 1 9 e e C Z c c m 8 q q +.4 e % 4 e [ e d f p h <.y.~.%X-X#X=X+X X).g.2.f * * ",
"O = h ;.,.s.l.OX&XhXhX].B 9 k a v ` ] ; ; 9 9 9 > 1 ; q : 8 u e 5 4 % 5 5 0 % 5 5 F 1.1.>.L p i p K ,.u.~.~.W.].'.).x.9.m M x - ",
"= < < h ;.,.<.!.^.^.W.9.,.8.;.I D g A 9 c x C 9 # 4 > # # % # # % # # f 2 , , < L >.1.1.1.=.F d M i I ,.y.y.s.c.T.f.9.8.d m v c ",
"= i < h 2 ;.:.i.!.Q.<.=.=.-.G g p 2 M ( m N G T d l c 9 ; : f < p , < F , < ( ( ) =.>.>.>.K d J T i s =.=.;.,.9.9.9.8.Q m c p.3.",
"* h I _ _ ) U L K D J J l g k d ( ) _ h.M S S S l z m l h 2 d d i h *.) ) ) ) r.( R *.U U j J 6.H m m D I U :.=.;.k l m W I.p.a.",
"m _ _ r.7.) d p l z M z V P U z / t.k.n.v.) m m M R R l :.7.7.7.i.i.1.o.S.) :.u.( S S T R 9.w.k.v.h.m c T R J i q.L *.e.P.1Xp.b.",
"r._ r.9XI.Y.h.1.I -.<.h.<.h.F.U.I.I.9X0XU.n.j.t.t.e.h.e.u.Y.9XY.v.L.I.1X1Xt.a.u.u.R R h.d.m.9X9X0X0XY.2.e.7.1XI.I.h.:.i.h.u.b.v.",
"h.v.1XfX0X0XI.1.h.i.u.u.h.k.h.h.Y.n.9XI.v.n.n.b.a.p.a.u.u.L.XXm.a.a.Y.Y.n.v.a.a.y.<.v.v.v.v.L.L.0X0XG.:.i.d.XXn.L.v.u.h.h.u.a.a."
};
